<svg xmlns="http://www.w3.org/2000/svg" viewBox="0 0 1000 1000"><defs><style>.cls-1,.cls-2{isolation:isolate;}.cls-2{mix-blend-mode:soft-light;font-size:122.13px;font-family:BlackOpsOne-Regular, Black Ops One;letter-spacing:-0.09em;}.cls-3{letter-spacing:0em;}</style></defs><g class="cls-1"><g id="Layer_1" data-name="Layer 1"><path d="M179.36,645.89c-65.58,16.83-99.14,67.85-175.8,72.86,39.55-86.2,65.58-187,107.47-270.82-11.9-29-60-19.34-97.71-20.85,62.23-89.9,169.09-132.2,254-197.95C296.29,148.94,312.25,54.83,365,0q21.21,81.48,48.81,156.26c41.48-32.07,41.38-108.65,97.71-125,4.07,54.63,17.39,99.53,29.28,145.84,112.56,78.38,213,193.94,410.37,125,12.41,32,33.25,54.83,48.81,83.3-15.66,66.65-69.34,92.71-88,156.26-11.19-38.09-108.19-49.32-117.24,0,44.13,26,99.34,85.79,136.76,31.27.81,59.94,2.14,120.27-9.76,166.68-22.27-35.28-103-8.32-136.76-31.27-32,83.89-41.48,191.94-58.67,291.67C649,950.59,627.55,841.44,570.11,770.87c-40.67,43.4-58.57,111.16-88,166.69-64.26-35.59-85.3-117.37-127-177.11-92.73,33.08-145.4,108.85-244.23,135.41C132.48,811.17,152.41,724.77,179.36,645.89Zm-127-239.56c26.13,6.92,61,4.41,78.19,20.85-18.3,98.43-70.26,161.07-88,260.4,59.89-15.94,96.39-56.93,156.28-72.87-2.54,91.21-62.63,176.11-48.8,250,64.87-45.41,126.69-94,205.18-125C403.76,785.21,424,860.78,472.5,906.38c35.28-52.62,48.8-128.49,97.71-166.68,55.51,65.85,81,163.58,146.52,218.7,12.1-91.31,24-182.72,48.8-260.39H912.05c-5.9-24.86,12.3-75.58-9.76-83.3-30.81,1.31-105.95-39.59-136.76-72.86,28.17-4.61,23.08-44.81,48.81-52.12,37.72-2,72-.4,97.71,10.42,20.33-37.39,48.09-66.85,68.43-104.14-41.49-4.41-57.86-35.58-68.43-72.87C678.6,433.6,635.18,139.42,433.35,218.8c-8.64,31.07,30.4,63.45,9.76,72.87-48.3-63-41.18-185.23-97.71-239.55C323.44,250.88,172.14,311.72,52.36,406.33Z"/><path d="M668.84,341.89c-14.34,40.29-57.35,49.91-88,72.86a1426,1426,0,0,1-146.51-52.12C501.07,343.59,583,340.68,668.84,341.89Zm-88,62.54c11-19.54,37.83-22.15,48.81-41.7-51.86,43.3-89.48-22.15-146.52,10.43C521.91,377.07,554.14,387.79,580.88,404.43Z"/><path d="M435,562.08a5.93,5.93,0,0,0-.84-1.91c-.19-.32-.3-.52-.36-.65-.92,1.13-.42,3.68.22,5.9A4.23,4.23,0,0,0,435,562.08Z"/><path d="M515.58,570.6A12.86,12.86,0,0,1,512,571q1.77,5.07,3.58,10.1a15.6,15.6,0,0,1,1.49-.86A21.65,21.65,0,0,0,515.58,570.6Z"/><path d="M605,609.2c-17.39,19.65-26.33,48.31-48.8,62.54-7.6-20.51-13.48-42.88-19.59-65a11,11,0,0,1-1,.78,21,21,0,0,1-9.27,3.32c8.77,25,16.65,51,20.09,81.66C580.27,686.68,610.07,622.13,605,609.2Z"/><path d="M434.56,549.34a8.41,8.41,0,0,1,1.51.3c-4.15-16.36-12.83-27.89-26.41-34.15-28.47,22-82.87,71.06-107.48,62.54,12.1-32.17,15.16-74.07,19.53-114.56-14.14-5.72-50.44,12.12-48.81-10.43,8.75-18.44,23.59-30.47,29.28-52.12-30.7,8.82-40.46,40.09-48.8,72.87,17.08,6,57.35-12.63,58.57,10.42a662.87,662.87,0,0,0-29.29,125c54.1-15.13,84.29-55.83,136.76-72.87a174.07,174.07,0,0,1,4.75,20.48C425.67,552.39,429.67,548.84,434.56,549.34Z"/><path d="M440.27,578.51a17.84,17.84,0,0,0,3.49-.13c.69-.07,1.38-.16,2.06-.26l.71-.9a58.85,58.85,0,0,1-6.35.73Z"/><path d="M332.79,289.77c-1.22,18.64,12,22,9.76,41.69-19.93-16.23-64.77-40.29-88-20.85C243.92,282.65,300.35,302.6,332.79,289.77Z"/></g><g id="Layer_2" data-name="Layer 2"><text class="cls-2" transform="matrix(0.88, -0.37, 0.36, 0.93, 220.13, 737.51)">F<tspan class="cls-3" x="68.7" y="0">ARKAS GYM</tspan></text></g></g></svg>