<svg xmlns="http://www.w3.org/2000/svg" viewBox="0 0 1000 1000">
<defs>
    <style>.cls-1,.cls-2{isolation:isolate;}.cls-2{mix-blend-mode:soft-light;font-size:122.13px;font-family:BlackOpsOne-Regular, Black Ops One;letter-spacing:-0.09em;}.cls-3{letter-spacing:0em;}</style>
    
    <filter id="f3" x="0" y="0" width="200%" height="200%">
      <feOffset result="offOut" in="SourceAlpha" dx="20" dy="20" />
      <feGaussianBlur result="blurOut" in="offOut" stdDeviation="10" />
      <feBlend in="SourceGraphic" in2="blurOut" mode="normal" />
    </filter>

</defs>

<g class="cls-1"><g id="Layer_1" data-name="Layer 1">
    <path fill="#b9bcbd" filter="url(#f3)" d="M260,526.35c-51.6,13.44-78,54.16-138.32,58.16,31.12-68.8,51.6-149.28,84.56-216.16-9.36-23.12-47.2-15.44-76.88-16.64,49-71.76,133-105.52,199.84-158,22.8-64,35.36-139.12,76.88-182.88q16.68,65,38.4,124.72C477.11,110,477,48.83,521.35,35.79c3.2,43.6,13.68,79.44,23,116.4C633,214.75,712,307,867.27,252c9.76,25.52,26.16,43.76,38.4,66.48-12.32,53.2-54.56,74-69.2,124.72-8.8-30.4-85.12-39.36-92.24,0,34.72,20.72,78.16,68.48,107.6,25,.64,47.84,1.68,96-7.68,133-17.52-28.16-81-6.64-107.6-25-25.2,67-32.64,153.2-46.16,232.8-60.88-39.44-77.76-126.56-123-182.88-32,34.64-46.08,88.72-69.2,133-50.56-28.4-67.12-93.68-99.92-141.36-73,26.4-114.4,86.88-192.16,108.08C223.11,658.27,238.79,589.31,260,526.35Zm-99.92-191.2c20.56,5.52,48,3.52,61.52,16.64-14.4,78.56-55.28,128.56-69.2,207.84,47.12-12.72,75.84-45.44,123-58.16C273.35,574.27,226.07,642,237,701c51-36.24,99.68-75,161.44-99.76,38.16,36.32,54.08,96.64,92.24,133,27.76-42,38.4-102.56,76.88-133,43.68,52.56,63.76,130.56,115.28,174.56C692.31,702.91,701.67,630,721.19,568H836.47c-4.64-19.84,9.68-60.32-7.68-66.48-24.24,1-83.36-31.6-107.6-58.16,22.16-3.68,18.16-35.76,38.4-41.6,29.68-1.6,56.64-.32,76.88,8.32,16-29.84,37.84-53.36,53.84-83.12-32.64-3.52-45.52-28.4-53.84-58.16-183.68,88.16-217.84-146.64-376.64-83.28-6.8,24.8,23.92,50.64,7.68,58.16-38-50.32-32.4-147.84-76.88-191.2C373.35,211.07,254.31,259.63,160.07,335.15Z"/>
    <path fill="#b9bcbd" d="M645.11,283.71c-11.28,32.16-45.12,39.84-69.2,58.16a1113.39,1113.39,0,0,1-115.28-41.6C513.11,285.07,577.59,282.75,645.11,283.71Zm-69.2,49.92c8.64-15.6,29.76-17.68,38.4-33.28-40.8,34.56-70.4-17.68-115.28,8.32C529.51,311.79,554.87,320.35,575.91,333.63Z"/>
    <path fill="#b9bcbd" d="M471.91,488.83c-18.64-4.8-17.12-31.36-23-49.92-41.28,13.6-65,46.08-107.6,58.16a535.22,535.22,0,0,1,23-99.76c-1-18.4-32.64-3.52-46.08-8.32,6.56-26.16,14.24-51.12,38.4-58.16-4.48,17.28-16.16,26.88-23,41.6-1.28,18,27.28,3.76,38.4,8.32-3.44,32.32-5.84,65.76-15.36,91.44,19.36,6.8,62.16-32.32,84.56-49.92,16.08,7.52,23.44,24.56,23,49.92,27.12-1.12,34.4-23.76,61.52-25,12.64,30.64,19.12,68,30.72,99.76,17.68-11.36,24.72-34.24,38.4-49.92,4,10.32-19.44,61.84-46.08,66.48-4.64-42.08-19.6-73-30.72-108.08C505,469.23,483.51,473.63,471.91,488.83Z"/>
    <path fill="#b9bcbd" d="M380.71,242.11c-1,14.88,9.44,17.52,7.68,33.28-15.68-13-51-32.16-69.2-16.64C310.79,236.43,355.19,252.35,380.71,242.11Z"/>
</g>

<g id="Layer_2" data-name="Layer 2">
    <text class="cls-2" fill="#b9bcbd" filter="url(#f3)" transform="matrix(0.91, -0.3, 0.28, 0.96, 223.91, 995.13)">F<tspan class="cls-3" x="68.7" y="0">ARKAS GYM</tspan>
    </text>
</g>
</g>
</svg>