<svg id="Layer_1" data-name="Layer 1" xmlns="http://www.w3.org/2000/svg" viewBox="0 0 1000 1000"><defs><style>.cls-1,.cls-9{fill:#b9bcbd;}.cls-2{opacity:0.75;}.cls-3{fill:#464444;}.cls-4,.cls-6,.cls-8{fill:none;}.cls-4,.cls-9{stroke:#464444;}.cls-4,.cls-6,.cls-8,.cls-9{stroke-miterlimit:10;}.cls-5{fill:#404040;}.cls-6{stroke:#404040;}.cls-7{fill:#5d5e5f;}.cls-8{stroke:#c8c8c8;}.cls-9{isolation:isolate;font-size:122.13px;stroke-width:4px;font-family:BlackOpsOne-Regular, Black Ops One;}.cls-10{letter-spacing:-0.09em;}</style></defs><path class="cls-1" d="M251.4,316.75c14.4,3.9,33.6,2.5,43,11.6-10.1,55-38.7,90-48.4,145.5,33-8.9,53.1-31.8,86.1-40.7-1.4,51.1-34.5,98.5-26.9,139.8,35.7-25.3,69.8-52.5,113-69.9,26.7,25.4,37.9,67.6,64.5,93.1,19.5-29.4,26.9-71.8,53.8-93.1,30.6,36.8,44.7,91.4,80.7,122.2,6.6-51,13.2-102.1,26.9-145.5h80.7c-3.2-13.9,6.8-42.2-5.4-46.6-16.9.7-58.4-22.1-75.3-40.7,15.5-2.6,12.7-25.1,26.9-29.1,20.8-1.1,39.6-.2,53.8,5.8,11.2-20.9,26.5-37.4,37.7-58.2-22.8-2.5-31.8-19.9-37.7-40.7-128.6,61.8-152.5-102.6-263.7-58.2-4.8,17.4,16.7,35.4,5.4,40.7-26.6-35.2-22.7-103.5-53.8-133.8-12,111-95.3,145-161.3,197.8Z"/><g id="Layer_1-2" data-name="Layer 1"><g class="cls-2"><path class="cls-3" d="M325.4,457.65c-36.1,9.4-54.6,37.9-96.8,40.7,21.8-48.2,36.1-104.5,59.2-151.3-6.6-16.2-33-10.8-53.8-11.6,34.3-50.3,93.1-73.9,139.9-110.6,16-44.8,24.8-97.4,53.8-128,7.8,30.3,16.7,59.4,26.9,87.3,22.8-17.9,22.8-60.7,53.8-69.9,2.2,30.5,9.6,55.6,16.1,81.5,62,43.9,117.3,108.4,226,69.9,6.9,17.9,18.3,30.7,26.9,46.5-8.6,37.2-38.2,51.8-48.4,87.3-6.2-21.3-59.6-27.6-64.5,0,24.3,14.5,54.7,48,75.3,17.5.4,33.5,1.2,67.2-5.4,93.1-12.2-19.7-56.7-4.6-75.3-17.5-17.6,46.9-22.8,107.2-32.3,163-42.6-27.6-54.5-88.6-86.1-128-22.4,24.2-32.3,62.1-48.4,93.1-35.4-19.9-47-65.6-69.9-99-51.1,18.5-80.1,60.8-134.5,75.7C299.5,550.05,310.5,501.75,325.4,457.65Zm-70-133.9c14.4,3.9,33.6,2.5,43,11.6-10.1,55-38.7,90-48.4,145.5,33-8.9,53.1-31.8,86.1-40.7-1.4,51.1-34.5,98.5-26.9,139.8,35.7-25.3,69.8-52.5,113-69.9,26.7,25.4,37.9,67.6,64.5,93.1,19.5-29.4,26.9-71.8,53.8-93.1,30.6,36.8,44.7,91.4,80.7,122.2,6.6-51,13.2-102.1,26.9-145.5h80.7c-3.2-13.9,6.8-42.2-5.4-46.6-16.9.7-58.4-22.1-75.3-40.7,15.5-2.6,12.7-25.1,26.9-29.1,20.8-1.1,39.6-.2,53.8,5.8,11.2-20.9,26.5-37.4,37.7-58.2-22.8-2.5-31.8-19.9-37.7-40.7-128.6,61.8-152.5-102.6-263.7-58.2-4.8,17.4,16.7,35.4,5.4,40.7-26.6-35.2-22.7-103.5-53.8-133.8-12,111-95.3,145-161.3,197.8Z"/><path class="cls-4" d="M325.4,457.65c-36.1,9.4-54.6,37.9-96.8,40.7,21.8-48.2,36.1-104.5,59.2-151.3-6.6-16.2-33-10.8-53.8-11.6,34.3-50.3,93.1-73.9,139.9-110.6,16-44.8,24.8-97.4,53.8-128,7.8,30.3,16.7,59.4,26.9,87.3,22.8-17.9,22.8-60.7,53.8-69.9,2.2,30.5,9.6,55.6,16.1,81.5,62,43.9,117.3,108.4,226,69.9,6.9,17.9,18.3,30.7,26.9,46.5-8.6,37.2-38.2,51.8-48.4,87.3-6.2-21.3-59.6-27.6-64.5,0,24.3,14.5,54.7,48,75.3,17.5.4,33.5,1.2,67.2-5.4,93.1-12.2-19.7-56.7-4.6-75.3-17.5-17.6,46.9-22.8,107.2-32.3,163-42.6-27.6-54.5-88.6-86.1-128-22.4,24.2-32.3,62.1-48.4,93.1-35.4-19.9-47-65.6-69.9-99-51.1,18.5-80.1,60.8-134.5,75.7C299.5,550.05,310.5,501.75,325.4,457.65Zm-70-133.9c14.4,3.9,33.6,2.5,43,11.6-10.1,55-38.7,90-48.4,145.5,33-8.9,53.1-31.8,86.1-40.7-1.4,51.1-34.5,98.5-26.9,139.8,35.7-25.3,69.8-52.5,113-69.9,26.7,25.4,37.9,67.6,64.5,93.1,19.5-29.4,26.9-71.8,53.8-93.1,30.6,36.8,44.7,91.4,80.7,122.2,6.6-51,13.2-102.1,26.9-145.5h80.7c-3.2-13.9,6.8-42.2-5.4-46.6-16.9.7-58.4-22.1-75.3-40.7,15.5-2.6,12.7-25.1,26.9-29.1,20.8-1.1,39.6-.2,53.8,5.8,11.2-20.9,26.5-37.4,37.7-58.2-22.8-2.5-31.8-19.9-37.7-40.7-128.6,61.8-152.5-102.6-263.7-58.2-4.8,17.4,16.7,35.4,5.4,40.7-26.6-35.2-22.7-103.5-53.8-133.8-12,111-95.3,145-161.3,197.8Z"/></g><path class="cls-5" d="M321.4,450.65c-36.1,9.4-54.6,37.9-96.8,40.7,21.8-48.2,36.1-104.5,59.2-151.3-6.6-16.2-33-10.8-53.8-11.6,34.3-50.3,93.1-73.9,139.9-110.6,16-44.8,24.8-97.4,53.8-128,7.8,30.3,16.7,59.4,26.9,87.3,22.8-17.9,22.8-60.7,53.8-69.9,2.2,30.5,9.6,55.6,16.1,81.5,62,43.9,117.3,108.4,226,69.9,6.9,17.9,18.3,30.7,26.9,46.5-8.6,37.2-38.2,51.8-48.4,87.3-6.2-21.3-59.6-27.6-64.5,0,24.3,14.5,54.7,48,75.3,17.5.4,33.5,1.2,67.2-5.4,93.1-12.2-19.7-56.7-4.6-75.3-17.5-17.6,46.9-22.8,107.2-32.3,163-42.6-27.6-54.5-88.6-86.1-128-22.4,24.2-32.3,62.1-48.4,93.1-35.4-19.9-47-65.6-69.9-99-51.1,18.5-80.1,60.8-134.5,75.7C295.5,543.05,306.5,494.75,321.4,450.65Zm-70-133.9c14.4,3.9,33.6,2.5,43,11.6-10.1,55-38.7,90-48.4,145.5,33-8.9,53.1-31.8,86.1-40.7-1.4,51.1-34.5,98.5-26.9,139.8,35.7-25.3,69.8-52.5,113-69.9,26.7,25.4,37.9,67.6,64.5,93.1,19.5-29.4,26.9-71.8,53.8-93.1,30.6,36.8,44.7,91.4,80.7,122.2,6.6-51,13.2-102.1,26.9-145.5h80.7c-3.2-13.9,6.8-42.2-5.4-46.6-16.9.7-58.4-22.1-75.3-40.7,15.5-2.6,12.7-25.1,26.9-29.1,20.8-1.1,39.6-.2,53.8,5.8,11.2-20.9,26.5-37.4,37.7-58.2-22.8-2.5-31.8-19.9-37.7-40.7-128.6,61.8-152.5-102.6-263.7-58.2-4.8,17.4,16.7,35.4,5.4,40.7-26.6-35.2-22.7-103.5-53.8-133.8-12,111-95.3,145-161.3,197.8Z"/><path class="cls-6" d="M321.4,450.65c-36.1,9.4-54.6,37.9-96.8,40.7,21.8-48.2,36.1-104.5,59.2-151.3-6.6-16.2-33-10.8-53.8-11.6,34.3-50.3,93.1-73.9,139.9-110.6,16-44.8,24.8-97.4,53.8-128,7.8,30.3,16.7,59.4,26.9,87.3,22.8-17.9,22.8-60.7,53.8-69.9,2.2,30.5,9.6,55.6,16.1,81.5,62,43.9,117.3,108.4,226,69.9,6.9,17.9,18.3,30.7,26.9,46.5-8.6,37.2-38.2,51.8-48.4,87.3-6.2-21.3-59.6-27.6-64.5,0,24.3,14.5,54.7,48,75.3,17.5.4,33.5,1.2,67.2-5.4,93.1-12.2-19.7-56.7-4.6-75.3-17.5-17.6,46.9-22.8,107.2-32.3,163-42.6-27.6-54.5-88.6-86.1-128-22.4,24.2-32.3,62.1-48.4,93.1-35.4-19.9-47-65.6-69.9-99-51.1,18.5-80.1,60.8-134.5,75.7C295.5,543.05,306.5,494.75,321.4,450.65Zm-70-133.9c14.4,3.9,33.6,2.5,43,11.6-10.1,55-38.7,90-48.4,145.5,33-8.9,53.1-31.8,86.1-40.7-1.4,51.1-34.5,98.5-26.9,139.8,35.7-25.3,69.8-52.5,113-69.9,26.7,25.4,37.9,67.6,64.5,93.1,19.5-29.4,26.9-71.8,53.8-93.1,30.6,36.8,44.7,91.4,80.7,122.2,6.6-51,13.2-102.1,26.9-145.5h80.7c-3.2-13.9,6.8-42.2-5.4-46.6-16.9.7-58.4-22.1-75.3-40.7,15.5-2.6,12.7-25.1,26.9-29.1,20.8-1.1,39.6-.2,53.8,5.8,11.2-20.9,26.5-37.4,37.7-58.2-22.8-2.5-31.8-19.9-37.7-40.7-128.6,61.8-152.5-102.6-263.7-58.2-4.8,17.4,16.7,35.4,5.4,40.7-26.6-35.2-22.7-103.5-53.8-133.8-12,111-95.3,145-161.3,197.8Z"/><g class="cls-2"><path class="cls-3" d="M409.8,258.65c-.6,9.2,5,11.7,5.5,19.7a1.74,1.74,0,0,1-2.8,1.5c-11.9-8.9-34-19.6-45.7-9.5"/></g><path class="cls-7" d="M405.8,251.65c-.6,9.2,5,11.7,5.5,19.7a1.74,1.74,0,0,1-2.8,1.5c-11.9-8.9-34-19.6-45.7-9.5"/><path class="cls-1" d="M362.8,263.35c-5.9-15.7,25.2-4.5,43.1-11.7"/><g class="cls-2"><path class="cls-3" d="M594.9,287.75c-7.9,22.5-31.6,27.9-48.4,40.7a776.56,776.56,0,0,1-80.7-29.1C502.5,288.75,547.7,287.15,594.9,287.75Zm-48.4,35c6-10.9,20.9-12.4,26.9-23.3-28.6,24.2-49.3-12.4-80.7,5.8C514,307.45,531.8,313.45,546.5,322.75Z"/><path class="cls-4" d="M594.9,287.75c-7.9,22.5-31.6,27.9-48.4,40.7a776.56,776.56,0,0,1-80.7-29.1C502.5,288.75,547.7,287.15,594.9,287.75Zm-48.4,35c6-10.9,20.9-12.4,26.9-23.3-28.6,24.2-49.3-12.4-80.7,5.8C514,307.45,531.8,313.45,546.5,322.75Z"/></g><path class="cls-5" d="M590.9,280.75c-7.9,22.5-31.6,27.9-48.4,40.7a776.56,776.56,0,0,1-80.7-29.1C498.5,281.75,543.7,280.15,590.9,280.75Zm-48.4,35c6-10.9,20.9-12.4,26.9-23.3-28.6,24.2-49.3-12.4-80.7,5.8C510,300.45,527.8,306.45,542.5,315.75Z"/><path class="cls-8" d="M590.9,280.75c-7.9,22.5-31.6,27.9-48.4,40.7a776.56,776.56,0,0,1-80.7-29.1C498.5,281.75,543.7,280.15,590.9,280.75Zm-48.4,35c6-10.9,20.9-12.4,26.9-23.3-28.6,24.2-49.3-12.4-80.7,5.8C510,300.45,527.8,306.45,542.5,315.75Z"/><g class="cls-2"><path class="cls-3" d="M473.7,431.35c-13-3.4-12-22-16.1-34.9-28.9,9.5-45.5,32.3-75.3,40.7a374.74,374.74,0,0,1,16.1-69.9c-.7-12.9-22.8-2.5-32.3-5.8,4.6-18.3,9.9-35.8,26.9-40.7-3.2,12.1-11.3,18.8-16.1,29.1-.9,12.6,19.1,2.7,26.9,5.8-2.4,22.6-4.1,46.1-10.8,64,13.6,4.8,43.5-22.6,59.2-34.9,11.3,5.2,16.4,17.2,16.1,34.9,19-.8,24.1-16.7,43-17.5,8.8,21.4,13.4,47.6,21.5,69.9,12.4-8,17.3-23.9,26.9-34.9,2.8,7.2-13.6,43.3-32.3,46.6-3.2-29.5-13.7-51.1-21.5-75.7C496.9,417.65,481.8,420.75,473.7,431.35Z"/><path class="cls-4" d="M473.7,431.35c-13-3.4-12-22-16.1-34.9-28.9,9.5-45.5,32.3-75.3,40.7a374.74,374.74,0,0,1,16.1-69.9c-.7-12.9-22.8-2.5-32.3-5.8,4.6-18.3,9.9-35.8,26.9-40.7-3.2,12.1-11.3,18.8-16.1,29.1-.9,12.6,19.1,2.7,26.9,5.8-2.4,22.6-4.1,46.1-10.8,64,13.6,4.8,43.5-22.6,59.2-34.9,11.3,5.2,16.4,17.2,16.1,34.9,19-.8,24.1-16.7,43-17.5,8.8,21.4,13.4,47.6,21.5,69.9,12.4-8,17.3-23.9,26.9-34.9,2.8,7.2-13.6,43.3-32.3,46.6-3.2-29.5-13.7-51.1-21.5-75.7C496.9,417.65,481.8,420.75,473.7,431.35Z"/></g><path class="cls-5" d="M469.7,424.35c-13-3.4-12-22-16.1-34.9-28.9,9.5-45.5,32.3-75.3,40.7a374.74,374.74,0,0,1,16.1-69.9c-.7-12.9-22.8-2.5-32.3-5.8,4.6-18.3,9.9-35.8,26.9-40.7-3.2,12.1-11.3,18.8-16.1,29.1-.9,12.6,19.1,2.7,26.9,5.8-2.4,22.6-4.1,46.1-10.8,64,13.6,4.8,43.5-22.6,59.2-34.9,11.3,5.2,16.4,17.2,16.1,34.9,19-.8,24.1-16.7,43-17.5,8.8,21.4,13.4,47.6,21.5,69.9,12.4-8,17.3-23.9,26.9-34.9,2.8,7.2-13.6,43.3-32.3,46.6-3.2-29.5-13.7-51.1-21.5-75.7C492.9,410.65,477.8,413.75,469.7,424.35Z"/><path class="cls-8" d="M469.7,424.35c-13-3.4-12-22-16.1-34.9-28.9,9.5-45.5,32.3-75.3,40.7a374.74,374.74,0,0,1,16.1-69.9c-.7-12.9-22.8-2.5-32.3-5.8,4.6-18.3,9.9-35.8,26.9-40.7-3.2,12.1-11.3,18.8-16.1,29.1-.9,12.6,19.1,2.7,26.9,5.8-2.4,22.6-4.1,46.1-10.8,64,13.6,4.8,43.5-22.6,59.2-34.9,11.3,5.2,16.4,17.2,16.1,34.9,19-.8,24.1-16.7,43-17.5,8.8,21.4,13.4,47.6,21.5,69.9,12.4-8,17.3-23.9,26.9-34.9,2.8,7.2-13.6,43.3-32.3,46.6-3.2-29.5-13.7-51.1-21.5-75.7C492.9,410.65,477.8,413.75,469.7,424.35Z"/></g><g id="Layer_2" data-name="Layer 2"><text class="cls-9" transform="matrix(0.91, -0.3, 0.28, 0.96, 162.97, 848.68)"><tspan class="cls-10">F</tspan><tspan x="68.7" y="0">ARKAS GYM</tspan></text></g></svg>