<svg id="Layer_1" data-name="Layer 1" xmlns="http://www.w3.org/2000/svg" viewBox="0 0 1000 1000"><defs><style>.cls-1,.cls-9{fill:#b9bcbd;}.cls-2{opacity:0.75;}.cls-3{fill:#464444;}.cls-4,.cls-6,.cls-8{fill:none;}.cls-4{stroke:#464444;}.cls-4,.cls-6,.cls-8,.cls-9{stroke-miterlimit:10;}.cls-5{fill:#404040;}.cls-6{stroke:#404040;}.cls-7{fill:#5d5e5f;}.cls-8{stroke:#c8c8c8;}.cls-11,.cls-9{isolation:isolate;}.cls-9{font-size:122.13px;stroke:#000;stroke-width:5px;font-family:BlackOpsOne-Regular, Black Ops One;}.cls-10{letter-spacing:-0.09em;}</style></defs><path class="cls-1" d="M243.4,285.25c14.4,3.9,33.6,2.5,43,11.6-10.1,55-38.7,90-48.4,145.5,33-8.9,53.1-31.8,86.1-40.7-1.4,51.1-34.5,98.5-26.9,139.8,35.7-25.3,69.8-52.5,113-69.9,26.7,25.4,37.9,67.6,64.5,93.1,19.5-29.4,26.9-71.8,53.8-93.1,30.6,36.8,44.7,91.4,80.7,122.2,6.6-51,13.2-102.1,26.9-145.5h80.7c-3.2-13.9,6.8-42.2-5.4-46.6-16.9.7-58.4-22.1-75.3-40.7,15.5-2.6,12.7-25.1,26.9-29.1,20.8-1.1,39.6-.2,53.8,5.8,11.2-20.9,26.5-37.4,37.7-58.2-22.8-2.5-31.8-19.9-37.7-40.7-128.6,61.8-152.5-102.6-263.7-58.2-4.8,17.4,16.7,35.4,5.4,40.7-26.6-35.2-22.7-103.5-53.8-133.8-12,111-95.3,145-161.3,197.8Z"/><g id="Layer_1-2" data-name="Layer 1"><g class="cls-2"><path class="cls-3" d="M317.4,426.15c-36.1,9.4-54.6,37.9-96.8,40.7,21.8-48.2,36.1-104.5,59.2-151.3-6.6-16.2-33-10.8-53.8-11.6,34.3-50.3,93.1-73.9,139.9-110.6,16-44.8,24.8-97.4,53.8-128,7.8,30.3,16.7,59.4,26.9,87.3,22.8-17.9,22.8-60.7,53.8-69.9,2.2,30.5,9.6,55.6,16.1,81.5,62,43.9,117.3,108.4,226,69.9,6.9,17.9,18.3,30.7,26.9,46.5-8.6,37.2-38.2,51.8-48.4,87.3-6.2-21.3-59.6-27.6-64.5,0,24.3,14.5,54.7,48,75.3,17.5.4,33.5,1.2,67.2-5.4,93.1-12.2-19.7-56.7-4.6-75.3-17.5-17.6,46.9-22.8,107.2-32.3,163-42.6-27.6-54.5-88.6-86.1-128-22.4,24.2-32.3,62.1-48.4,93.1-35.4-19.9-47-65.6-69.9-99-51.1,18.5-80.1,60.8-134.5,75.7C291.5,518.55,302.5,470.25,317.4,426.15Zm-70-133.9c14.4,3.9,33.6,2.5,43,11.6-10.1,55-38.7,90-48.4,145.5,33-8.9,53.1-31.8,86.1-40.7-1.4,51.1-34.5,98.5-26.9,139.8,35.7-25.3,69.8-52.5,113-69.9,26.7,25.4,37.9,67.6,64.5,93.1,19.5-29.4,26.9-71.8,53.8-93.1,30.6,36.8,44.7,91.4,80.7,122.2,6.6-51,13.2-102.1,26.9-145.5h80.7c-3.2-13.9,6.8-42.2-5.4-46.6-16.9.7-58.4-22.1-75.3-40.7,15.5-2.6,12.7-25.1,26.9-29.1,20.8-1.1,39.6-.2,53.8,5.8,11.2-20.9,26.5-37.4,37.7-58.2-22.8-2.5-31.8-19.9-37.7-40.7-128.6,61.8-152.5-102.6-263.7-58.2-4.8,17.4,16.7,35.4,5.4,40.7-26.6-35.2-22.7-103.5-53.8-133.8-12,111-95.3,145-161.3,197.8Z"/><path class="cls-4" d="M317.4,426.15c-36.1,9.4-54.6,37.9-96.8,40.7,21.8-48.2,36.1-104.5,59.2-151.3-6.6-16.2-33-10.8-53.8-11.6,34.3-50.3,93.1-73.9,139.9-110.6,16-44.8,24.8-97.4,53.8-128,7.8,30.3,16.7,59.4,26.9,87.3,22.8-17.9,22.8-60.7,53.8-69.9,2.2,30.5,9.6,55.6,16.1,81.5,62,43.9,117.3,108.4,226,69.9,6.9,17.9,18.3,30.7,26.9,46.5-8.6,37.2-38.2,51.8-48.4,87.3-6.2-21.3-59.6-27.6-64.5,0,24.3,14.5,54.7,48,75.3,17.5.4,33.5,1.2,67.2-5.4,93.1-12.2-19.7-56.7-4.6-75.3-17.5-17.6,46.9-22.8,107.2-32.3,163-42.6-27.6-54.5-88.6-86.1-128-22.4,24.2-32.3,62.1-48.4,93.1-35.4-19.9-47-65.6-69.9-99-51.1,18.5-80.1,60.8-134.5,75.7C291.5,518.55,302.5,470.25,317.4,426.15Zm-70-133.9c14.4,3.9,33.6,2.5,43,11.6-10.1,55-38.7,90-48.4,145.5,33-8.9,53.1-31.8,86.1-40.7-1.4,51.1-34.5,98.5-26.9,139.8,35.7-25.3,69.8-52.5,113-69.9,26.7,25.4,37.9,67.6,64.5,93.1,19.5-29.4,26.9-71.8,53.8-93.1,30.6,36.8,44.7,91.4,80.7,122.2,6.6-51,13.2-102.1,26.9-145.5h80.7c-3.2-13.9,6.8-42.2-5.4-46.6-16.9.7-58.4-22.1-75.3-40.7,15.5-2.6,12.7-25.1,26.9-29.1,20.8-1.1,39.6-.2,53.8,5.8,11.2-20.9,26.5-37.4,37.7-58.2-22.8-2.5-31.8-19.9-37.7-40.7-128.6,61.8-152.5-102.6-263.7-58.2-4.8,17.4,16.7,35.4,5.4,40.7-26.6-35.2-22.7-103.5-53.8-133.8-12,111-95.3,145-161.3,197.8Z"/></g><path class="cls-5" d="M313.4,419.15c-36.1,9.4-54.6,37.9-96.8,40.7,21.8-48.2,36.1-104.5,59.2-151.3-6.6-16.2-33-10.8-53.8-11.6,34.3-50.3,93.1-73.9,139.9-110.6,16-44.8,24.8-97.4,53.8-128,7.8,30.3,16.7,59.4,26.9,87.3,22.8-17.9,22.8-60.7,53.8-69.9,2.2,30.5,9.6,55.6,16.1,81.5,62,43.9,117.3,108.4,226,69.9,6.9,17.9,18.3,30.7,26.9,46.5-8.6,37.2-38.2,51.8-48.4,87.3-6.2-21.3-59.6-27.6-64.5,0,24.3,14.5,54.7,48,75.3,17.5.4,33.5,1.2,67.2-5.4,93.1-12.2-19.7-56.7-4.6-75.3-17.5-17.6,46.9-22.8,107.2-32.3,163-42.6-27.6-54.5-88.6-86.1-128-22.4,24.2-32.3,62.1-48.4,93.1-35.4-19.9-47-65.6-69.9-99-51.1,18.5-80.1,60.8-134.5,75.7C287.5,511.55,298.5,463.25,313.4,419.15Zm-70-133.9c14.4,3.9,33.6,2.5,43,11.6-10.1,55-38.7,90-48.4,145.5,33-8.9,53.1-31.8,86.1-40.7-1.4,51.1-34.5,98.5-26.9,139.8,35.7-25.3,69.8-52.5,113-69.9,26.7,25.4,37.9,67.6,64.5,93.1,19.5-29.4,26.9-71.8,53.8-93.1,30.6,36.8,44.7,91.4,80.7,122.2,6.6-51,13.2-102.1,26.9-145.5h80.7c-3.2-13.9,6.8-42.2-5.4-46.6-16.9.7-58.4-22.1-75.3-40.7,15.5-2.6,12.7-25.1,26.9-29.1,20.8-1.1,39.6-.2,53.8,5.8,11.2-20.9,26.5-37.4,37.7-58.2-22.8-2.5-31.8-19.9-37.7-40.7-128.6,61.8-152.5-102.6-263.7-58.2-4.8,17.4,16.7,35.4,5.4,40.7-26.6-35.2-22.7-103.5-53.8-133.8-12,111-95.3,145-161.3,197.8Z"/><path class="cls-6" d="M313.4,419.15c-36.1,9.4-54.6,37.9-96.8,40.7,21.8-48.2,36.1-104.5,59.2-151.3-6.6-16.2-33-10.8-53.8-11.6,34.3-50.3,93.1-73.9,139.9-110.6,16-44.8,24.8-97.4,53.8-128,7.8,30.3,16.7,59.4,26.9,87.3,22.8-17.9,22.8-60.7,53.8-69.9,2.2,30.5,9.6,55.6,16.1,81.5,62,43.9,117.3,108.4,226,69.9,6.9,17.9,18.3,30.7,26.9,46.5-8.6,37.2-38.2,51.8-48.4,87.3-6.2-21.3-59.6-27.6-64.5,0,24.3,14.5,54.7,48,75.3,17.5.4,33.5,1.2,67.2-5.4,93.1-12.2-19.7-56.7-4.6-75.3-17.5-17.6,46.9-22.8,107.2-32.3,163-42.6-27.6-54.5-88.6-86.1-128-22.4,24.2-32.3,62.1-48.4,93.1-35.4-19.9-47-65.6-69.9-99-51.1,18.5-80.1,60.8-134.5,75.7C287.5,511.55,298.5,463.25,313.4,419.15Zm-70-133.9c14.4,3.9,33.6,2.5,43,11.6-10.1,55-38.7,90-48.4,145.5,33-8.9,53.1-31.8,86.1-40.7-1.4,51.1-34.5,98.5-26.9,139.8,35.7-25.3,69.8-52.5,113-69.9,26.7,25.4,37.9,67.6,64.5,93.1,19.5-29.4,26.9-71.8,53.8-93.1,30.6,36.8,44.7,91.4,80.7,122.2,6.6-51,13.2-102.1,26.9-145.5h80.7c-3.2-13.9,6.8-42.2-5.4-46.6-16.9.7-58.4-22.1-75.3-40.7,15.5-2.6,12.7-25.1,26.9-29.1,20.8-1.1,39.6-.2,53.8,5.8,11.2-20.9,26.5-37.4,37.7-58.2-22.8-2.5-31.8-19.9-37.7-40.7-128.6,61.8-152.5-102.6-263.7-58.2-4.8,17.4,16.7,35.4,5.4,40.7-26.6-35.2-22.7-103.5-53.8-133.8-12,111-95.3,145-161.3,197.8Z"/><g class="cls-2"><path class="cls-3" d="M401.8,227.15c-.6,9.2,5,11.7,5.5,19.7a1.74,1.74,0,0,1-2.8,1.5c-11.9-8.9-34-19.6-45.7-9.5"/></g><path class="cls-7" d="M397.8,220.15c-.6,9.2,5,11.7,5.5,19.7a1.74,1.74,0,0,1-2.8,1.5c-11.9-8.9-34-19.6-45.7-9.5"/><path class="cls-1" d="M354.8,231.85c-5.9-15.7,25.2-4.5,43.1-11.7"/><g class="cls-2"><path class="cls-3" d="M586.9,256.25c-7.9,22.5-31.6,27.9-48.4,40.7a776.56,776.56,0,0,1-80.7-29.1C494.5,257.25,539.7,255.65,586.9,256.25Zm-48.4,35c6-10.9,20.9-12.4,26.9-23.3-28.6,24.2-49.3-12.4-80.7,5.8C506,276,523.8,282,538.5,291.25Z"/><path class="cls-4" d="M586.9,256.25c-7.9,22.5-31.6,27.9-48.4,40.7a776.56,776.56,0,0,1-80.7-29.1C494.5,257.25,539.7,255.65,586.9,256.25Zm-48.4,35c6-10.9,20.9-12.4,26.9-23.3-28.6,24.2-49.3-12.4-80.7,5.8C506,276,523.8,282,538.5,291.25Z"/></g><path class="cls-5" d="M582.9,249.25c-7.9,22.5-31.6,27.9-48.4,40.7a776.56,776.56,0,0,1-80.7-29.1C490.5,250.25,535.7,248.65,582.9,249.25Zm-48.4,35c6-10.9,20.9-12.4,26.9-23.3-28.6,24.2-49.3-12.4-80.7,5.8C502,269,519.8,275,534.5,284.25Z"/><path class="cls-8" d="M582.9,249.25c-7.9,22.5-31.6,27.9-48.4,40.7a776.56,776.56,0,0,1-80.7-29.1C490.5,250.25,535.7,248.65,582.9,249.25Zm-48.4,35c6-10.9,20.9-12.4,26.9-23.3-28.6,24.2-49.3-12.4-80.7,5.8C502,269,519.8,275,534.5,284.25Z"/><g class="cls-2"><path class="cls-3" d="M465.7,399.85c-13-3.4-12-22-16.1-34.9-28.9,9.5-45.5,32.3-75.3,40.7a374.74,374.74,0,0,1,16.1-69.9c-.7-12.9-22.8-2.5-32.3-5.8,4.6-18.3,9.9-35.8,26.9-40.7-3.2,12.1-11.3,18.8-16.1,29.1-.9,12.6,19.1,2.7,26.9,5.8-2.4,22.6-4.1,46.1-10.8,64,13.6,4.8,43.5-22.6,59.2-34.9,11.3,5.2,16.4,17.2,16.1,34.9,19-.8,24.1-16.7,43-17.5,8.8,21.4,13.4,47.6,21.5,69.9,12.4-8,17.3-23.9,26.9-34.9,2.8,7.2-13.6,43.3-32.3,46.6-3.2-29.5-13.7-51.1-21.5-75.7C488.9,386.15,473.8,389.25,465.7,399.85Z"/><path class="cls-4" d="M465.7,399.85c-13-3.4-12-22-16.1-34.9-28.9,9.5-45.5,32.3-75.3,40.7a374.74,374.74,0,0,1,16.1-69.9c-.7-12.9-22.8-2.5-32.3-5.8,4.6-18.3,9.9-35.8,26.9-40.7-3.2,12.1-11.3,18.8-16.1,29.1-.9,12.6,19.1,2.7,26.9,5.8-2.4,22.6-4.1,46.1-10.8,64,13.6,4.8,43.5-22.6,59.2-34.9,11.3,5.2,16.4,17.2,16.1,34.9,19-.8,24.1-16.7,43-17.5,8.8,21.4,13.4,47.6,21.5,69.9,12.4-8,17.3-23.9,26.9-34.9,2.8,7.2-13.6,43.3-32.3,46.6-3.2-29.5-13.7-51.1-21.5-75.7C488.9,386.15,473.8,389.25,465.7,399.85Z"/></g><path class="cls-5" d="M461.7,392.85c-13-3.4-12-22-16.1-34.9-28.9,9.5-45.5,32.3-75.3,40.7a374.74,374.74,0,0,1,16.1-69.9c-.7-12.9-22.8-2.5-32.3-5.8,4.6-18.3,9.9-35.8,26.9-40.7-3.2,12.1-11.3,18.8-16.1,29.1-.9,12.6,19.1,2.7,26.9,5.8-2.4,22.6-4.1,46.1-10.8,64,13.6,4.8,43.5-22.6,59.2-34.9,11.3,5.2,16.4,17.2,16.1,34.9,19-.8,24.1-16.7,43-17.5,8.8,21.4,13.4,47.6,21.5,69.9,12.4-8,17.3-23.9,26.9-34.9,2.8,7.2-13.6,43.3-32.3,46.6-3.2-29.5-13.7-51.1-21.5-75.7C484.9,379.15,469.8,382.25,461.7,392.85Z"/><path class="cls-8" d="M461.7,392.85c-13-3.4-12-22-16.1-34.9-28.9,9.5-45.5,32.3-75.3,40.7a374.74,374.74,0,0,1,16.1-69.9c-.7-12.9-22.8-2.5-32.3-5.8,4.6-18.3,9.9-35.8,26.9-40.7-3.2,12.1-11.3,18.8-16.1,29.1-.9,12.6,19.1,2.7,26.9,5.8-2.4,22.6-4.1,46.1-10.8,64,13.6,4.8,43.5-22.6,59.2-34.9,11.3,5.2,16.4,17.2,16.1,34.9,19-.8,24.1-16.7,43-17.5,8.8,21.4,13.4,47.6,21.5,69.9,12.4-8,17.3-23.9,26.9-34.9,2.8,7.2-13.6,43.3-32.3,46.6-3.2-29.5-13.7-51.1-21.5-75.7C484.9,379.15,469.8,382.25,461.7,392.85Z"/></g><g id="Layer_2" data-name="Layer 2"><text class="cls-9" transform="matrix(0.91, -0.3, 0.28, 0.96, 127.97, 880.18)"><tspan class="cls-10">F</tspan><tspan x="68.7" y="0">ARKAS GYM</tspan></text><g class="cls-11"><path class="cls-1" d="M108.16,795.12l24-7.91,9.9,33.95,22.14-7.3,4.36,14.94-22.15,7.3,7.9,27.08-24,7.91Zm32.21,6L135.94,786l36.58-12.06,7.35,25.19-24,7.91L153,797Z"/><path class="cls-1" d="M210.14,844.77,187,852.41l4.57-81L211,798.06Zm27.54-18.17-23.56,7.76.61-16.7,13-4.3-34.61-46.25,23.39-7.72,50.86,66.51-24.25,8Z"/><path class="cls-1" d="M274.23,823.64l-22.15-76,24-7.91,22.16,76Zm10-69.95-4.42-15.17,27.4-9,18.86,10.41,6.65,22.79L325.11,778l-1.23-1.36-21.6,10.58,1.45,1.72-8.36,2.75L291.08,777l18-5.94-6.8-23.3Zm62,46.2-25.62,8.44L303.73,789l19-6.28,2.33-4.66Z"/><path class="cls-1" d="M354.87,797.06l-22.15-76,24-7.91,22.16,76Zm24.54-19.89-10.77-36.92,8.57-33.83,25-8.23Zm46.06-3.39-25.93,8.56-13.31-15,7.66-27.19Z"/><path class="cls-1" d="M446.53,766.84l-23.17,7.64,4.56-81,19.44,26.66Zm27.53-18.17-23.55,7.76.6-16.7,13-4.29-34.61-46.26,23.39-7.72L503.78,748l-24.26,8Z"/><path class="cls-1" d="M555.12,731l-8.3-28.45-31.15,10.27-18.88-10.47-5-17.11,10-19.93,8.14-2.69,7.86,27,33.11-10.92,18.39,10.63L574.73,708l-10,19.91Zm-52.23-7.75,24-7.91,2.64,9,17.8-5.87,4,13.74-29.69,9.78L505.11,730.9Zm14.85-48.2-4-13.68,28.81-9.5L558.9,661l2.36,8.07-22.09,7.28L537,668.76Z"/><path class="cls-1" d="M639,686.77,659.55,680,664,695.16,633.8,705.1,615,694.67l-13.31-45.62,10-19.91,9.6-3.17Zm-9.5-46.88-4.43-15.17,29.25-9.65,17,11,2.23,7.62-24,7.91L647.33,634Zm14.34,15.73,32.94-10.86,12.29,42.13-21.27,7-7.9-27.07-11.67,3.84Z"/><path class="cls-1" d="M710.27,653.41l-39.53-43.76,23.55-7.76,40.54,45.37,6.53,22.39-24,7.92Zm24.53-12-18.95-21.12,5-27.2,23.06-7.6Z"/><path class="cls-1" d="M748.94,583.87l25.51-8.4,29.17,27.4,7.18-32.49L822,608.63l-8.14,37.13Zm22.1,76-20.1-68.93,34,32.29,8.54,29.25Zm63.6-21-22.15-76,24-7.9,22.16,76Z"/></g></g></svg>