<?xml version="1.0" encoding="utf-8"?>
<!-- Generator: Adobe Illustrator 25.0.0, SVG Export Plug-In . SVG Version: 6.00 Build 0)  -->
<svg version="1.1" xmlns="http://www.w3.org/2000/svg" xmlns:xlink="http://www.w3.org/1999/xlink" x="0px" y="0px"
	 viewBox="0 0 1000 1000" style="enable-background:new 0 0 1000 1000;" xml:space="preserve">
<style type="text/css">
	.st0{opacity:0.5;}
	.st1{fill:#B9BCBD;}
	.st2{opacity:0.75;}
	.st3{fill:#464444;}
	.st4{fill:none;stroke:#464444;stroke-miterlimit:10;}
	.st5{fill:#404040;}
	.st6{fill:none;stroke:#C8C8C8;stroke-miterlimit:10;}
	.st7{fill:#5D5E5F;}
	.st8{font-family:'BlackOpsOne-Regular';}
	.st9{font-size:122.13px;}
</style>
<g class="st0">
	<g id="Layer_1">
	</g>
</g>
<g>
	<g>
		<g>
			<path class="st1" d="M232.9,300.6c14.4,3.9,33.6,2.5,43,11.6c-10.1,55-38.7,90-48.4,145.5c33-8.9,53.1-31.8,86.1-40.7
				c-1.4,51.1-34.5,98.5-26.9,139.8c35.7-25.3,69.8-52.5,113-69.9c26.7,25.4,37.9,67.6,64.5,93.1c19.5-29.4,26.9-71.8,53.8-93.1
				c30.6,36.8,44.7,91.4,80.7,122.2c6.6-51,13.2-102.1,26.9-145.5h80.7c-3.2-13.9,6.8-42.2-5.4-46.6c-16.9,0.7-58.4-22.1-75.3-40.7
				c15.5-2.6,12.7-25.1,26.9-29.1c20.8-1.1,39.6-0.2,53.8,5.8c11.2-20.9,26.5-37.4,37.7-58.2c-22.8-2.5-31.8-19.9-37.7-40.7
				c-128.6,61.8-152.5-102.6-263.7-58.2c-4.8,17.4,16.7,35.4,5.4,40.7c-26.6-35.2-22.7-103.5-53.8-133.8
				C382.2,213.8,298.9,247.8,232.9,300.6L232.9,300.6z"/>
			<g id="Layer_1_1_">
				<g>
					<g class="st2">
						<path class="st3" d="M306.9,441.5c-36.1,9.4-54.6,37.9-96.8,40.7c21.8-48.2,36.1-104.5,59.2-151.3
							c-6.6-16.2-33-10.8-53.8-11.6c34.3-50.3,93.1-73.9,139.9-110.6c16-44.8,24.8-97.4,53.8-128c7.8,30.3,16.7,59.4,26.9,87.3
							c22.8-17.9,22.8-60.7,53.8-69.9c2.2,30.5,9.6,55.6,16.1,81.5c62,43.9,117.3,108.4,226,69.9c6.9,17.9,18.3,30.7,26.9,46.5
							c-8.6,37.2-38.2,51.8-48.4,87.3c-6.2-21.3-59.6-27.6-64.5,0c24.3,14.5,54.7,48,75.3,17.5c0.4,33.5,1.2,67.2-5.4,93.1
							c-12.2-19.7-56.7-4.6-75.3-17.5c-17.6,46.9-22.8,107.2-32.3,163c-42.6-27.6-54.5-88.6-86.1-128
							c-22.4,24.2-32.3,62.1-48.4,93.1c-35.4-19.9-47-65.6-69.9-99c-51.1,18.5-80.1,60.8-134.5,75.7
							C281,533.9,292,485.6,306.9,441.5z M236.9,307.6c14.4,3.9,33.6,2.5,43,11.6c-10.1,55-38.7,90-48.4,145.5
							c33-8.9,53.1-31.8,86.1-40.7c-1.4,51.1-34.5,98.5-26.9,139.8c35.7-25.3,69.8-52.5,113-69.9c26.7,25.4,37.9,67.6,64.5,93.1
							c19.5-29.4,26.9-71.8,53.8-93.1c30.6,36.8,44.7,91.4,80.7,122.2c6.6-51,13.2-102.1,26.9-145.5h80.7
							c-3.2-13.9,6.8-42.2-5.4-46.6c-16.9,0.7-58.4-22.1-75.3-40.7c15.5-2.6,12.7-25.1,26.9-29.1c20.8-1.1,39.6-0.2,53.8,5.8
							c11.2-20.9,26.5-37.4,37.7-58.2c-22.8-2.5-31.8-19.9-37.7-40.7c-128.6,61.8-152.5-102.6-263.7-58.2
							c-4.8,17.4,16.7,35.4,5.4,40.7c-26.6-35.2-22.7-103.5-53.8-133.8C386.2,220.8,302.9,254.8,236.9,307.6L236.9,307.6z"/>
						<path class="st4" d="M306.9,441.5c-36.1,9.4-54.6,37.9-96.8,40.7c21.8-48.2,36.1-104.5,59.2-151.3
							c-6.6-16.2-33-10.8-53.8-11.6c34.3-50.3,93.1-73.9,139.9-110.6c16-44.8,24.8-97.4,53.8-128c7.8,30.3,16.7,59.4,26.9,87.3
							c22.8-17.9,22.8-60.7,53.8-69.9c2.2,30.5,9.6,55.6,16.1,81.5c62,43.9,117.3,108.4,226,69.9c6.9,17.9,18.3,30.7,26.9,46.5
							c-8.6,37.2-38.2,51.8-48.4,87.3c-6.2-21.3-59.6-27.6-64.5,0c24.3,14.5,54.7,48,75.3,17.5c0.4,33.5,1.2,67.2-5.4,93.1
							c-12.2-19.7-56.7-4.6-75.3-17.5c-17.6,46.9-22.8,107.2-32.3,163c-42.6-27.6-54.5-88.6-86.1-128
							c-22.4,24.2-32.3,62.1-48.4,93.1c-35.4-19.9-47-65.6-69.9-99c-51.1,18.5-80.1,60.8-134.5,75.7
							C281,533.9,292,485.6,306.9,441.5z M236.9,307.6c14.4,3.9,33.6,2.5,43,11.6c-10.1,55-38.7,90-48.4,145.5
							c33-8.9,53.1-31.8,86.1-40.7c-1.4,51.1-34.5,98.5-26.9,139.8c35.7-25.3,69.8-52.5,113-69.9c26.7,25.4,37.9,67.6,64.5,93.1
							c19.5-29.4,26.9-71.8,53.8-93.1c30.6,36.8,44.7,91.4,80.7,122.2c6.6-51,13.2-102.1,26.9-145.5h80.7
							c-3.2-13.9,6.8-42.2-5.4-46.6c-16.9,0.7-58.4-22.1-75.3-40.7c15.5-2.6,12.7-25.1,26.9-29.1c20.8-1.1,39.6-0.2,53.8,5.8
							c11.2-20.9,26.5-37.4,37.7-58.2c-22.8-2.5-31.8-19.9-37.7-40.7c-128.6,61.8-152.5-102.6-263.7-58.2
							c-4.8,17.4,16.7,35.4,5.4,40.7c-26.6-35.2-22.7-103.5-53.8-133.8C386.2,220.8,302.9,254.8,236.9,307.6L236.9,307.6z"/>
					</g>
					<g>
						<path class="st5" d="M302.9,434.5c-36.1,9.4-54.6,37.9-96.8,40.7c21.8-48.2,36.1-104.5,59.2-151.3
							c-6.6-16.2-33-10.8-53.8-11.6c34.3-50.3,93.1-73.9,139.9-110.6c16-44.8,24.8-97.4,53.8-128c7.8,30.3,16.7,59.4,26.9,87.3
							c22.8-17.9,22.8-60.7,53.8-69.9c2.2,30.5,9.6,55.6,16.1,81.5c62,43.9,117.3,108.4,226,69.9c6.9,17.9,18.3,30.7,26.9,46.5
							c-8.6,37.2-38.2,51.8-48.4,87.3c-6.2-21.3-59.6-27.6-64.5,0c24.3,14.5,54.7,48,75.3,17.5c0.4,33.5,1.2,67.2-5.4,93.1
							c-12.2-19.7-56.7-4.6-75.3-17.5c-17.6,46.9-22.8,107.2-32.3,163c-42.6-27.6-54.5-88.6-86.1-128
							c-22.4,24.2-32.3,62.1-48.4,93.1c-35.4-19.9-47-65.6-69.9-99c-51.1,18.5-80.1,60.8-134.5,75.7
							C277,526.9,288,478.6,302.9,434.5z M232.9,300.6c14.4,3.9,33.6,2.5,43,11.6c-10.1,55-38.7,90-48.4,145.5
							c33-8.9,53.1-31.8,86.1-40.7c-1.4,51.1-34.5,98.5-26.9,139.8c35.7-25.3,69.8-52.5,113-69.9c26.7,25.4,37.9,67.6,64.5,93.1
							c19.5-29.4,26.9-71.8,53.8-93.1c30.6,36.8,44.7,91.4,80.7,122.2c6.6-51,13.2-102.1,26.9-145.5h80.7
							c-3.2-13.9,6.8-42.2-5.4-46.6c-16.9,0.7-58.4-22.1-75.3-40.7c15.5-2.6,12.7-25.1,26.9-29.1c20.8-1.1,39.6-0.2,53.8,5.8
							c11.2-20.9,26.5-37.4,37.7-58.2c-22.8-2.5-31.8-19.9-37.7-40.7c-128.6,61.8-152.5-102.6-263.7-58.2
							c-4.8,17.4,16.7,35.4,5.4,40.7c-26.6-35.2-22.7-103.5-53.8-133.8C382.2,213.8,298.9,247.8,232.9,300.6L232.9,300.6z"/>
						<path class="st6" d="M302.9,434.5c-36.1,9.4-54.6,37.9-96.8,40.7c21.8-48.2,36.1-104.5,59.2-151.3
							c-6.6-16.2-33-10.8-53.8-11.6c34.3-50.3,93.1-73.9,139.9-110.6c16-44.8,24.8-97.4,53.8-128c7.8,30.3,16.7,59.4,26.9,87.3
							c22.8-17.9,22.8-60.7,53.8-69.9c2.2,30.5,9.6,55.6,16.1,81.5c62,43.9,117.3,108.4,226,69.9c6.9,17.9,18.3,30.7,26.9,46.5
							c-8.6,37.2-38.2,51.8-48.4,87.3c-6.2-21.3-59.6-27.6-64.5,0c24.3,14.5,54.7,48,75.3,17.5c0.4,33.5,1.2,67.2-5.4,93.1
							c-12.2-19.7-56.7-4.6-75.3-17.5c-17.6,46.9-22.8,107.2-32.3,163c-42.6-27.6-54.5-88.6-86.1-128
							c-22.4,24.2-32.3,62.1-48.4,93.1c-35.4-19.9-47-65.6-69.9-99c-51.1,18.5-80.1,60.8-134.5,75.7
							C277,526.9,288,478.6,302.9,434.5z M232.9,300.6c14.4,3.9,33.6,2.5,43,11.6c-10.1,55-38.7,90-48.4,145.5
							c33-8.9,53.1-31.8,86.1-40.7c-1.4,51.1-34.5,98.5-26.9,139.8c35.7-25.3,69.8-52.5,113-69.9c26.7,25.4,37.9,67.6,64.5,93.1
							c19.5-29.4,26.9-71.8,53.8-93.1c30.6,36.8,44.7,91.4,80.7,122.2c6.6-51,13.2-102.1,26.9-145.5h80.7
							c-3.2-13.9,6.8-42.2-5.4-46.6c-16.9,0.7-58.4-22.1-75.3-40.7c15.5-2.6,12.7-25.1,26.9-29.1c20.8-1.1,39.6-0.2,53.8,5.8
							c11.2-20.9,26.5-37.4,37.7-58.2c-22.8-2.5-31.8-19.9-37.7-40.7c-128.6,61.8-152.5-102.6-263.7-58.2
							c-4.8,17.4,16.7,35.4,5.4,40.7c-26.6-35.2-22.7-103.5-53.8-133.8C382.2,213.8,298.9,247.8,232.9,300.6L232.9,300.6z"/>
					</g>
				</g>
				<g>
					<g class="st2">
						<path class="st3" d="M391.3,242.5c-0.6,9.2,5,11.7,5.5,19.7c0.1,1.5-1.6,2.4-2.8,1.5c-11.9-8.9-34-19.6-45.7-9.5"/>
					</g>
					<g>
						<path class="st7" d="M387.3,235.5c-0.6,9.2,5,11.7,5.5,19.7c0.1,1.5-1.6,2.4-2.8,1.5c-11.9-8.9-34-19.6-45.7-9.5"/>
					</g>
				</g>
				<path class="st1" d="M344.3,247.2c-5.9-15.7,25.2-4.5,43.1-11.7"/>
				<g>
					<g class="st2">
						<path class="st3" d="M576.4,271.6c-7.9,22.5-31.6,27.9-48.4,40.7c-27.4-8.2-54.3-17.9-80.7-29.1
							C484,272.6,529.2,271,576.4,271.6z M528,306.6c6-10.9,20.9-12.4,26.9-23.3c-28.6,24.2-49.3-12.4-80.7,5.8
							C495.5,291.3,513.3,297.3,528,306.6z"/>
						<path class="st4" d="M576.4,271.6c-7.9,22.5-31.6,27.9-48.4,40.7c-27.4-8.2-54.3-17.9-80.7-29.1
							C484,272.6,529.2,271,576.4,271.6z M528,306.6c6-10.9,20.9-12.4,26.9-23.3c-28.6,24.2-49.3-12.4-80.7,5.8
							C495.5,291.3,513.3,297.3,528,306.6z"/>
					</g>
					<g>
						<g>
							<path class="st5" d="M572.4,264.6c-7.9,22.5-31.6,27.9-48.4,40.7c-27.4-8.2-54.3-17.9-80.7-29.1
								C480,265.6,525.2,264,572.4,264.6z M524,299.6c6-10.9,20.9-12.4,26.9-23.3c-28.6,24.2-49.3-12.4-80.7,5.8
								C491.5,284.3,509.3,290.3,524,299.6z"/>
						</g>
						<g>
							<path class="st6" d="M572.4,264.6c-7.9,22.5-31.6,27.9-48.4,40.7c-27.4-8.2-54.3-17.9-80.7-29.1
								C480,265.6,525.2,264,572.4,264.6z M524,299.6c6-10.9,20.9-12.4,26.9-23.3c-28.6,24.2-49.3-12.4-80.7,5.8
								C491.5,284.3,509.3,290.3,524,299.6z"/>
						</g>
					</g>
				</g>
				<g>
					<g class="st2">
						<path class="st3" d="M455.2,415.2c-13-3.4-12-22-16.1-34.9c-28.9,9.5-45.5,32.3-75.3,40.7c3.1-23.7,8.5-47.1,16.1-69.9
							c-0.7-12.9-22.8-2.5-32.3-5.8c4.6-18.3,9.9-35.8,26.9-40.7c-3.2,12.1-11.3,18.8-16.1,29.1c-0.9,12.6,19.1,2.7,26.9,5.8
							c-2.4,22.6-4.1,46.1-10.8,64c13.6,4.8,43.5-22.6,59.2-34.9c11.3,5.2,16.4,17.2,16.1,34.9c19-0.8,24.1-16.7,43-17.5
							c8.8,21.4,13.4,47.6,21.5,69.9c12.4-8,17.3-23.9,26.9-34.9c2.8,7.2-13.6,43.3-32.3,46.6c-3.2-29.5-13.7-51.1-21.5-75.7
							C478.4,401.5,463.3,404.6,455.2,415.2z"/>
						<path class="st4" d="M455.2,415.2c-13-3.4-12-22-16.1-34.9c-28.9,9.5-45.5,32.3-75.3,40.7c3.1-23.7,8.5-47.1,16.1-69.9
							c-0.7-12.9-22.8-2.5-32.3-5.8c4.6-18.3,9.9-35.8,26.9-40.7c-3.2,12.1-11.3,18.8-16.1,29.1c-0.9,12.6,19.1,2.7,26.9,5.8
							c-2.4,22.6-4.1,46.1-10.8,64c13.6,4.8,43.5-22.6,59.2-34.9c11.3,5.2,16.4,17.2,16.1,34.9c19-0.8,24.1-16.7,43-17.5
							c8.8,21.4,13.4,47.6,21.5,69.9c12.4-8,17.3-23.9,26.9-34.9c2.8,7.2-13.6,43.3-32.3,46.6c-3.2-29.5-13.7-51.1-21.5-75.7
							C478.4,401.5,463.3,404.6,455.2,415.2z"/>
					</g>
					<g>
						<path class="st5" d="M451.2,408.2c-13-3.4-12-22-16.1-34.9c-28.9,9.5-45.5,32.3-75.3,40.7c3.1-23.7,8.5-47.1,16.1-69.9
							c-0.7-12.9-22.8-2.5-32.3-5.8c4.6-18.3,9.9-35.8,26.9-40.7c-3.2,12.1-11.3,18.8-16.1,29.1c-0.9,12.6,19.1,2.7,26.9,5.8
							c-2.4,22.6-4.1,46.1-10.8,64c13.6,4.8,43.5-22.6,59.2-34.9c11.3,5.2,16.4,17.2,16.1,34.9c19-0.8,24.1-16.7,43-17.5
							c8.8,21.4,13.4,47.6,21.5,69.9c12.4-8,17.3-23.9,26.9-34.9c2.8,7.2-13.6,43.3-32.3,46.6c-3.2-29.5-13.7-51.1-21.5-75.7
							C474.4,394.5,459.3,397.6,451.2,408.2z"/>
						<path class="st6" d="M451.2,408.2c-13-3.4-12-22-16.1-34.9c-28.9,9.5-45.5,32.3-75.3,40.7c3.1-23.7,8.5-47.1,16.1-69.9
							c-0.7-12.9-22.8-2.5-32.3-5.8c4.6-18.3,9.9-35.8,26.9-40.7c-3.2,12.1-11.3,18.8-16.1,29.1c-0.9,12.6,19.1,2.7,26.9,5.8
							c-2.4,22.6-4.1,46.1-10.8,64c13.6,4.8,43.5-22.6,59.2-34.9c11.3,5.2,16.4,17.2,16.1,34.9c19-0.8,24.1-16.7,43-17.5
							c8.8,21.4,13.4,47.6,21.5,69.9c12.4-8,17.3-23.9,26.9-34.9c2.8,7.2-13.6,43.3-32.3,46.6c-3.2-29.5-13.7-51.1-21.5-75.7
							C474.4,394.5,459.3,397.6,451.2,408.2z"/>
					</g>
				</g>
			</g>
		</g>
		<g id="Layer_2_1_">
			
				<image style="overflow:visible;opacity:0.75;" width="825" height="421" xlink:href="1234A97.png"  transform="matrix(1 0 0 1 77 536)">
			</image>
			<g>
				<g class="st2">
					<text transform="matrix(0.91 -0.3 0.28 0.96 117.4679 895.5329)" class="st3 st8 st9">FARKAS GYM</text>
				</g>
				<g>
					<g>
						<text transform="matrix(0.91 -0.3 0.28 0.96 113.4679 888.5329)" class="st1 st8 st9">FARKAS GYM</text>
					</g>
				</g>
			</g>
		</g>
	</g>
</g>
</svg>
