<?xml version="1.0" encoding="iso-8859-1"?>
<!-- Generator: Adobe Illustrator 25.3.1, SVG Export Plug-In . SVG Version: 6.00 Build 0)  -->
<svg version="1.1" id="Calque_1" xmlns="http://www.w3.org/2000/svg" xmlns:xlink="http://www.w3.org/1999/xlink" x="0px" y="0px"
	 width="504px" height="504px" viewBox="0 0 504 504" enable-background="new 0 0 504 504" xml:space="preserve">
<g>
	<path fill="#00ff00" d="M387.881,327.602c-0.898-3.744-1.702-7.514-2.698-11.232c-1.406-5.248-3.731-10.085-6.912-14.5
		c-1.073-1.489-2.295-2.844-3.661-4.071c-0.587-0.527-1.204-1.012-2.05-1.496c0.044,0.317,0.028,0.495,0.095,0.634
		c0.343,0.711,0.691,1.422,1.068,2.116c3.11,5.735,5.197,11.826,6.452,18.222c0.751,3.827,1.538,7.648,2.568,11.414
		c0.718,2.624,1.593,5.191,2.572,7.726c0.137,0.354,0.266,0.703,0.431,1.278c-0.502-0.252-0.824-0.358-1.081-0.55
		c-1.663-1.239-3.326-2.477-4.962-3.751c-3.392-2.64-6.766-5.303-10.15-7.953c-0.146-0.114-0.323-0.189-0.46-0.268
		c-0.363,0.179-0.252,0.455-0.231,0.67c0.114,1.18,0.238,2.359,0.379,3.535c0.586,4.878,0.431,9.767,0.191,14.655
		c-0.046,0.936-0.181,1.868-0.284,2.801c-0.009,0.083-0.088,0.158-0.137,0.239c-0.37,0.111-0.519-0.206-0.721-0.392
		c-2.263-2.083-4.725-3.895-7.4-5.413c-0.329-0.187-0.692-0.313-1.149-0.517c-0.069,0.655-0.133,1.182-0.178,1.71
		c-0.735,8.62-3.925,16.255-9.223,23.05c-2.769,3.551-5.776,6.889-8.923,10.107c-2.937,3.003-5.869,6.01-8.768,9.049
		c-6.984,7.32-13.165,15.256-18.263,24.013c-0.22,0.378-0.468,0.74-0.693,1.095c-0.437-0.097-0.435-0.433-0.492-0.688
		c-0.569-2.553-1.158-5.103-1.668-7.669c-0.635-3.196-1.204-6.404-1.792-9.61c-0.098-0.534-0.128-1.079-0.219-1.615
		c-0.037-0.222-0.15-0.432-0.282-0.793c-2.945,4.023-5.721,7.977-8.776,11.726c-1.987,2.438-8.544,8.955-10.175,10.249
		c-0.506-0.651-1.008-1.309-1.524-1.956c-0.524-0.656-1.059-1.304-1.595-1.951c-0.505-0.608-1.012-1.215-1.53-1.812
		c-0.545-0.63-1.068-1.283-1.782-1.976c-0.14,0.446-0.274,0.745-0.325,1.057c-0.541,3.323-1.382,6.569-2.481,9.75
		c-1.902,5.503-4.926,10.322-8.898,14.559c-2.334,2.491-4.84,4.802-7.399,7.057c-1.594,1.405-3.182,2.816-4.762,4.238
		c-3.113,2.802-5.735,5.991-7.645,9.739c-0.095,0.185-0.222,0.355-0.345,0.525c-0.123-0.17-0.25-0.339-0.345-0.525
		c-1.911-3.748-4.532-6.937-7.645-9.739c-1.579-1.421-3.167-2.833-4.762-4.238c-2.559-2.255-5.065-4.567-7.399-7.057
		c-3.972-4.237-6.996-9.056-8.898-14.559c-1.099-3.181-1.94-6.427-2.481-9.75c-0.051-0.312-0.185-0.611-0.325-1.057
		c-0.714,0.693-1.237,1.346-1.782,1.976c-0.518,0.598-1.025,1.204-1.53,1.812c-0.536,0.646-1.071,1.294-1.595,1.951
		c-0.516,0.647-1.018,1.305-1.524,1.956c-1.631-1.294-8.188-7.811-10.175-10.249c-3.055-3.748-5.831-7.703-8.776-11.726
		c-0.132,0.361-0.245,0.571-0.282,0.793c-0.09,0.535-0.121,1.081-0.219,1.615c-0.587,3.205-1.157,6.414-1.792,9.61
		c-0.51,2.565-1.099,5.115-1.668,7.669c-0.057,0.254-0.054,0.591-0.492,0.688c-0.226-0.355-0.473-0.717-0.693-1.095
		c-5.098-8.757-11.279-16.692-18.263-24.013c-2.899-3.039-5.831-6.047-8.768-9.049c-3.147-3.218-6.154-6.555-8.923-10.107
		c-5.299-6.796-8.489-14.43-9.223-23.05c-0.045-0.529-0.109-1.056-0.178-1.71c-0.457,0.204-0.82,0.33-1.149,0.517
		c-2.675,1.518-5.136,3.33-7.4,5.413c-0.202,0.186-0.352,0.503-0.721,0.392c-0.048-0.081-0.128-0.157-0.137-0.239
		c-0.103-0.933-0.239-1.865-0.284-2.801c-0.24-4.888-0.395-9.777,0.191-14.655c0.141-1.177,0.265-2.356,0.379-3.535
		c0.021-0.215,0.132-0.491-0.231-0.67c-0.137,0.079-0.314,0.154-0.46,0.268c-3.384,2.65-6.758,5.313-10.15,7.953
		c-1.636,1.274-3.299,2.512-4.962,3.751c-0.258,0.192-0.579,0.299-1.081,0.55c0.165-0.575,0.294-0.924,0.431-1.278
		c0.979-2.535,1.854-5.102,2.572-7.726c1.03-3.766,1.817-7.587,2.568-11.414c1.255-6.396,3.342-12.487,6.452-18.222
		c0.377-0.694,0.724-1.405,1.068-2.116c0.067-0.138,0.051-0.316,0.095-0.634c-0.846,0.484-1.463,0.969-2.05,1.496
		c-1.365,1.226-2.588,2.581-3.661,4.071c-3.181,4.415-5.506,9.252-6.912,14.5c-0.996,3.718-1.799,7.488-2.698,11.232
		c-1.665,6.936-3.803,13.702-7.223,20.005c-0.082,0.151-0.095,0.34-0.153,0.559c0.851,0.133,1.543-0.172,2.238-0.389
		c3.03-0.942,5.912-2.242,8.644-3.841c2.428-1.421,4.785-2.963,7.177-4.447c0.235-0.146,0.442-0.429,0.843-0.196
		c0,0.308,0.001,0.647,0,0.987c-0.006,2.075-0.031,4.151-0.014,6.226c0.033,4.153,0.927,8.13,2.524,11.954
		c0.104,0.25,0.144,0.588,0.576,0.69c0.537-0.276,0.898-0.816,1.327-1.278c1.981-2.138,3.956-4.282,5.943-6.415
		c0.184-0.197,0.344-0.503,0.786-0.376c0.044,0.142,0.118,0.317,0.152,0.5c0.379,2.046,0.986,4.027,1.724,5.969
		c1.612,4.237,3.939,8.067,6.666,11.668c3.168,4.183,6.7,8.05,10.319,11.84c3.618,3.788,7.274,7.539,10.904,11.315
		c5.488,5.709,10.463,11.851,15.217,18.175c3.058,4.068,6.044,8.189,8.549,12.634c0.06,0.107,0.194,0.173,0.376,0.329
		c1.082-1.737,1.921-3.515,2.615-5.35c0.68-1.799,1.316-3.623,1.821-5.477c0.514-1.885,0.845-3.819,1.289-5.885
		c0.228,0.232,0.38,0.341,0.473,0.488c0.422,0.668,0.803,1.363,1.243,2.018c1.24,1.843,2.405,3.748,3.775,5.491
		c2.988,3.8,6.634,6.901,10.676,9.539c0.237,0.154,0.508,0.255,0.883,0.439c0.1-0.74,0.205-1.367,0.268-1.999
		c0.177-1.776,0.548-3.511,1.056-5.218c0.062-0.207,0.178-0.397,0.276-0.611c0.112,0.085,0.171,0.107,0.187,0.146
		c0.11,0.273,0.224,0.546,0.314,0.826c0.927,2.873,2.066,5.657,3.505,8.315c2.51,4.634,5.977,8.452,10.017,11.784
		c2.557,2.108,5.259,4.019,7.993,5.887c1.835,1.254,3.681,2.495,5.483,3.796c2.601,1.878,5.111,3.863,7.431,6.066
		c2.32-2.203,4.83-4.188,7.431-6.066c1.802-1.301,3.647-2.542,5.483-3.796c2.734-1.869,5.436-3.779,7.993-5.887
		c4.041-3.332,7.508-7.149,10.017-11.784c1.44-2.658,2.578-5.441,3.505-8.315c0.09-0.28,0.204-0.553,0.314-0.826
		c0.016-0.039,0.075-0.061,0.187-0.146c0.099,0.215,0.215,0.405,0.276,0.611c0.508,1.707,0.878,3.443,1.056,5.218
		c0.063,0.632,0.168,1.26,0.268,1.999c0.375-0.184,0.646-0.285,0.883-0.439c4.042-2.638,7.687-5.738,10.676-9.539
		c1.37-1.742,2.535-3.647,3.775-5.491c0.441-0.655,0.821-1.35,1.243-2.018c0.093-0.147,0.245-0.257,0.473-0.488
		c0.444,2.066,0.775,4.001,1.289,5.885c0.505,1.854,1.141,3.678,1.821,5.477c0.694,1.836,1.534,3.613,2.615,5.35
		c0.182-0.156,0.316-0.222,0.376-0.329c2.505-4.444,5.491-8.565,8.549-12.634c4.753-6.324,9.728-12.465,15.217-18.175
		c3.63-3.776,7.287-7.527,10.904-11.315c3.619-3.789,7.15-7.657,10.319-11.84c2.728-3.601,5.055-7.431,6.666-11.668
		c0.738-1.941,1.345-3.922,1.724-5.969c0.034-0.183,0.108-0.358,0.152-0.5c0.442-0.127,0.602,0.179,0.786,0.376
		c1.987,2.133,3.962,4.277,5.943,6.415c0.428,0.462,0.79,1.002,1.327,1.278c0.432-0.102,0.472-0.44,0.576-0.69
		c1.598-3.824,2.491-7.801,2.524-11.954c0.017-2.075-0.008-4.151-0.014-6.226c-0.001-0.34,0-0.68,0-0.987
		c0.402-0.233,0.608,0.05,0.843,0.196c2.392,1.484,4.749,3.026,7.177,4.447c2.733,1.599,5.614,2.899,8.644,3.841
		c0.696,0.216,1.387,0.521,2.238,0.389c-0.058-0.22-0.071-0.408-0.153-0.559C391.684,341.303,389.545,334.538,387.881,327.602z"/>
	<path fill="#00ff00" d="M302.048,355.492c6.123,2.152,11.938,4.966,17.524,8.258c4.006,2.361,7.848,4.963,11.494,7.852
		c0.308,0.244,0.625,0.49,0.972,0.671c0.688,0.358,1.402,0.177,1.842-0.418c0.405-0.547,0.41-1.218-0.062-1.776
		c-0.283-0.335-0.642-0.613-0.988-0.888c-3.487-2.77-7.157-5.276-10.976-7.563c-6.244-3.74-12.761-6.908-19.663-9.253
		c-0.276-0.094-0.541-0.219-0.873-0.355c0.177-1.091,0.832-1.991,1.113-3.203c-1.249,0.801-1.982,1.891-2.965,2.614
		c-1.847-0.43-3.614-0.88-5.398-1.249c-2.423-0.502-4.87-0.829-7.354-0.762c-0.393,0.011-0.798,0.005-1.176,0.096
		c-0.735,0.176-1.198,0.835-1.143,1.526c0.055,0.7,0.592,1.249,1.361,1.331c0.44,0.047,0.888,0.021,1.333,0.023
		c3.184,0.016,6.285,0.59,9.35,1.396c0.14,0.037,0.271,0.109,0.485,0.198c-0.366,0.739-1.001,1.22-1.518,1.789
		c-0.493,0.542-0.921,1.156-1.508,1.557c-1.832-0.418-3.599-0.875-5.388-1.212c-1.355-0.255-2.738-0.367-4.111-0.521
		c-0.34-0.038-0.694-0.027-1.032,0.026c-0.629,0.098-1.064,0.578-1.141,1.191c-0.08,0.634,0.188,1.245,0.771,1.457
		c0.5,0.182,1.05,0.265,1.584,0.309c2.231,0.182,5.089,0.713,6.908,1.333c-0.103,0.211-0.164,0.443-0.306,0.605
		c-0.745,0.852-1.511,1.686-2.302,2.562c-0.466-0.183-0.872-0.339-1.275-0.503c-1.653-0.669-3.335-1.238-5.124-1.398
		c-0.387-0.034-0.793-0.035-1.169,0.047c-0.61,0.133-1.015,0.673-1.055,1.277c-0.038,0.591,0.312,1.209,0.889,1.403
		c0.464,0.156,0.96,0.23,1.448,0.296c1.184,0.16,2.307,0.529,3.41,0.967c0.124,0.049,0.219,0.173,0.347,0.278
		c-0.081,0.148-0.123,0.296-0.218,0.389c-2.676,2.63-5.721,4.703-9.256,5.998c-2.018,0.739-4.114,1.072-6.261,0.729
		c-0.773-0.124-1.557-0.316-2.274-0.623c-3.218-1.379-6.07-3.294-8.398-5.939c-0.124-0.141-0.215-0.312-0.377-0.551
		c0.262-0.132,0.461-0.26,0.678-0.338c2.314-0.833,4.36-2.125,6.124-3.811c4.073-3.893,7.076-8.489,8.699-13.914
		c0.846-2.829,1.063-5.726,0.482-8.646c-0.698-3.513-2.576-6.27-5.475-8.334c-8.369-5.958-28.13-5.71-36.151,0
		c-2.899,2.064-4.777,4.821-5.475,8.334c-0.58,2.92-0.364,5.817,0.482,8.646c1.623,5.425,4.626,10.02,8.699,13.914
		c1.764,1.686,3.81,2.977,6.124,3.811c0.217,0.078,0.416,0.206,0.678,0.338c-0.162,0.239-0.253,0.41-0.377,0.551
		c-2.329,2.644-5.181,4.56-8.398,5.939c-0.717,0.307-1.501,0.5-2.274,0.623c-2.147,0.343-4.243,0.01-6.261-0.729
		c-3.534-1.294-6.58-3.368-9.256-5.998c-0.095-0.093-0.137-0.241-0.218-0.389c0.128-0.105,0.223-0.228,0.347-0.278
		c1.103-0.438,2.226-0.806,3.41-0.967c0.488-0.066,0.984-0.141,1.448-0.296c0.577-0.194,0.927-0.812,0.889-1.403
		c-0.039-0.603-0.445-1.144-1.055-1.277c-0.376-0.082-0.783-0.081-1.169-0.047c-1.79,0.16-3.471,0.729-5.124,1.398
		c-0.403,0.163-0.809,0.319-1.275,0.503c-0.791-0.876-1.557-1.71-2.302-2.562c-0.142-0.162-0.202-0.395-0.306-0.605
		c1.819-0.62,4.677-1.15,6.908-1.333c0.535-0.044,1.084-0.127,1.584-0.309c0.583-0.212,0.851-0.823,0.771-1.457
		c-0.077-0.613-0.512-1.093-1.141-1.191c-0.338-0.053-0.693-0.064-1.032-0.026c-1.373,0.154-2.756,0.266-4.111,0.521
		c-1.789,0.337-3.556,0.794-5.388,1.212c-0.587-0.4-1.015-1.014-1.508-1.557c-0.517-0.568-1.152-1.049-1.518-1.789
		c0.213-0.088,0.344-0.161,0.485-0.198c3.066-0.806,6.166-1.38,9.35-1.396c0.445-0.002,0.893,0.024,1.333-0.023
		c0.769-0.081,1.305-0.631,1.361-1.331c0.055-0.691-0.408-1.349-1.143-1.526c-0.378-0.091-0.783-0.085-1.176-0.096
		c-2.484-0.068-4.931,0.26-7.354,0.762c-1.784,0.369-3.551,0.819-5.398,1.249c-0.983-0.723-1.716-1.813-2.965-2.614
		c0.281,1.213,0.936,2.113,1.113,3.203c-0.332,0.136-0.597,0.261-0.873,0.355c-6.902,2.346-13.419,5.513-19.663,9.253
		c-3.818,2.287-7.489,4.794-10.976,7.563c-0.347,0.275-0.705,0.553-0.988,0.888c-0.471,0.558-0.467,1.228-0.062,1.776
		c0.441,0.595,1.154,0.776,1.842,0.418c0.347-0.18,0.664-0.426,0.972-0.671c3.646-2.89,7.488-5.492,11.494-7.852
		c5.586-3.292,11.401-6.106,17.524-8.258c0.593-0.209,1.167-0.535,1.91-0.486c0.651,1.248,1.03,2.617,1.514,4.025
		c-0.376,0.192-0.711,0.384-1.063,0.538c-5.273,2.321-10.155,5.292-14.682,8.849c-4.292,3.374-8.155,7.181-11.537,11.47
		c-0.336,0.426-0.683,0.85-0.963,1.313c-0.439,0.728-0.297,1.541,0.289,2.003c0.602,0.474,1.386,0.405,2.003-0.205
		c0.244-0.242,0.448-0.526,0.659-0.8c3.123-4.051,6.706-7.651,10.682-10.862c4.364-3.525,9.082-6.48,14.203-8.779
		c0.471-0.212,0.928-0.565,1.556-0.434c0.712,1.672,1.421,3.337,2.138,5.023c-0.524,0.439-0.975,0.818-1.427,1.196
		c-4.668,3.904-8.595,8.436-11.632,13.722c-0.245,0.427-0.45,0.877-0.665,1.32c-0.312,0.642,0.027,1.484,0.592,1.808
		c0.651,0.373,1.485,0.191,1.97-0.464c0.233-0.315,0.408-0.675,0.603-1.018c2.946-5.172,6.794-9.575,11.385-13.342
		c0.213-0.174,0.475-0.288,0.744-0.448c0.339,0.471,0.618,0.876,0.915,1.268c1.902,2.516,4.156,4.651,6.999,6.053
		c0.991,0.489,1.708,1.118,2.175,2.086c0.085,0.177,0.203,0.339,0.309,0.506c2.344,3.683,5.479,6.455,9.48,8.233
		c2.489,1.106,5.06,1.966,7.715,2.566c11.149,2.523,22.663,1.287,28.349,0c2.655-0.601,5.226-1.461,7.715-2.566
		c4.001-1.777,7.136-4.549,9.48-8.233c0.106-0.167,0.223-0.329,0.309-0.506c0.466-0.968,1.183-1.597,2.175-2.086
		c2.843-1.402,5.097-3.537,6.999-6.053c0.297-0.392,0.576-0.798,0.915-1.268c0.268,0.159,0.531,0.273,0.744,0.448
		c4.592,3.767,8.439,8.17,11.385,13.342c0.195,0.343,0.37,0.703,0.603,1.018c0.485,0.655,1.319,0.837,1.97,0.464
		c0.566-0.324,0.904-1.166,0.592-1.808c-0.215-0.443-0.42-0.894-0.665-1.32c-3.036-5.286-6.964-9.818-11.632-13.722
		c-0.452-0.378-0.903-0.757-1.427-1.196c0.718-1.686,1.427-3.351,2.138-5.023c0.628-0.131,1.085,0.222,1.556,0.434
		c5.12,2.299,9.839,5.254,14.203,8.779c3.976,3.211,7.559,6.811,10.682,10.862c0.211,0.274,0.415,0.558,0.659,0.8
		c0.617,0.611,1.401,0.68,2.003,0.205c0.587-0.462,0.728-1.276,0.289-2.003c-0.279-0.463-0.627-0.887-0.963-1.313
		c-3.382-4.29-7.245-8.097-11.537-11.47c-4.527-3.558-9.408-6.528-14.682-8.849c-0.352-0.155-0.687-0.347-1.063-0.538
		c0.484-1.408,0.863-2.777,1.514-4.025C300.881,354.957,301.455,355.284,302.048,355.492z M275.718,381.52
		c-1.925,1.416-4.038,2.459-6.315,3.181c-8.511,2.697-23.057,3.724-34.807,0c-2.277-0.722-4.39-1.765-6.315-3.181
		c-0.425-0.313-0.89-0.591-1.28-1.221c0.34-0.047,0.483-0.089,0.624-0.083c2.919,0.11,5.813-0.161,8.713-0.474
		c9.113-0.983,21.894-1.017,31.322,0c2.899,0.313,5.793,0.584,8.713,0.474c0.141-0.005,0.284,0.036,0.624,0.083
		C276.608,380.929,276.143,381.207,275.718,381.52z"/>
	<path fill="#00ff00" d="M125.396,189.832c0.414,1.677,0.812,3.365,1.535,4.944c0.306,0.668,0.698,1.303,1.104,1.917
		c0.31,0.469,0.801,0.73,1.353,0.839c1.044,0.206,1.867-0.417,1.926-1.483c0.024-0.441,0.004-0.894-0.068-1.329
		c-0.22-1.314-0.421-2.636-0.729-3.932c-1.229-5.169-1.697-10.434-1.89-15.718c-0.305-8.357-0.005-16.695,1.12-24.994
		c0.531-3.916,1.116-7.824,1.922-11.692c2.146-10.301,4.785-20.478,7.795-30.561c1.993-6.676,4.407-13.206,6.765-19.756
		c2.893-8.037,5.872-16.042,8.538-24.159c0.087-0.265,0.209-0.519,0.337-0.83c0.54,0.326,0.625,0.844,0.831,1.272
		c2.63,5.467,5.939,10.477,10.036,14.962c3.103,3.397,6.372,6.618,9.876,9.605c6.398,5.453,13.066,10.554,19.902,15.441
		c2.733,1.954,5.471,3.9,8.168,5.903c2.144,1.591,4.201,3.298,6.012,5.269c3.288,3.581,6.14,7.482,8.477,11.752
		c0.332,0.607,0.627,1.238,1.01,1.811c0.325,0.487,0.717,0.944,1.145,1.343c0.502,0.467,1.147,0.617,1.794,0.358
		c0.706-0.283,1.064-0.892,1.103-1.626c0.028-0.535-0.028-1.089-0.143-1.613c-0.849-3.893-2.278-7.557-4.397-10.942
		c-2.057-3.285-4.497-6.251-7.338-8.89c-2.832-2.631-5.919-4.932-9.124-7.081c-3.364-2.256-6.754-4.475-10.089-6.774
		c-4.682-3.227-9.24-6.618-13.322-10.602c-2.404-2.347-4.828-4.675-7.195-7.059c-4.166-4.197-7.689-8.881-10.566-14.054
		c-1.874-3.371-3.557-6.832-5.125-10.353c-0.198-0.445-0.409-0.884-0.723-1.562c-0.265,0.624-0.421,0.983-0.571,1.346
		c-2.444,5.935-4.878,11.875-7.334,17.806c-1.946,4.698-3.833,9.425-5.909,14.066c-2.096,4.687-4.402,9.279-6.598,13.922
		c-1.097,2.321-2.24,4.626-3.211,7c-3.844,9.402-6.609,19.126-8.476,29.105c-0.818,4.373-1.38,8.779-1.568,13.232
		c-0.295,6.969-0.19,13.927,0.234,20.889C122.461,175.118,123.592,182.525,125.396,189.832z"/>
	<path fill="#00ff00" d="M280.685,127.554c-0.115,0.525-0.171,1.079-0.143,1.613c0.039,0.733,0.397,1.343,1.103,1.626
		c0.647,0.259,1.292,0.109,1.794-0.358c0.428-0.399,0.82-0.856,1.145-1.343c0.383-0.573,0.678-1.204,1.009-1.811
		c2.337-4.27,5.189-8.171,8.477-11.752c1.811-1.972,3.868-3.678,6.012-5.269c2.697-2.002,5.435-3.949,8.168-5.903
		c6.836-4.887,13.504-9.989,19.902-15.441c3.504-2.986,6.773-6.208,9.876-9.605c4.096-4.485,7.405-9.495,10.036-14.962
		c0.206-0.428,0.292-0.946,0.831-1.272c0.127,0.311,0.25,0.565,0.337,0.83c2.665,8.117,5.645,16.123,8.538,24.159
		c2.357,6.55,4.772,13.08,6.765,19.756c3.01,10.083,5.649,20.26,7.795,30.561c0.806,3.868,1.391,7.776,1.922,11.692
		c1.125,8.299,1.425,16.638,1.12,24.994c-0.193,5.284-0.661,10.549-1.89,15.718c-0.308,1.295-0.508,2.617-0.729,3.932
		c-0.073,0.435-0.093,0.888-0.068,1.329c0.059,1.066,0.882,1.689,1.926,1.483c0.553-0.109,1.044-0.37,1.353-0.839
		c0.406-0.615,0.798-1.249,1.104-1.917c0.724-1.578,1.121-3.266,1.535-4.944c1.804-7.307,2.935-14.714,3.392-22.23
		c0.423-6.961,0.528-13.92,0.234-20.889c-0.188-4.453-0.75-8.859-1.568-13.232c-1.867-9.979-4.632-19.703-8.476-29.105
		c-0.971-2.374-2.113-4.679-3.211-7c-2.195-4.643-4.502-9.235-6.598-13.922c-2.076-4.641-3.962-9.367-5.909-14.066
		c-2.457-5.93-4.89-11.87-7.334-17.806c-0.149-0.363-0.306-0.722-0.571-1.346c-0.314,0.678-0.525,1.117-0.723,1.562
		c-1.567,3.521-3.25,6.982-5.125,10.353c-2.877,5.173-6.4,9.858-10.566,14.054c-2.367,2.385-4.791,4.712-7.195,7.059
		c-4.082,3.984-8.64,7.375-13.322,10.602c-3.335,2.298-6.725,4.518-10.089,6.774c-3.205,2.149-6.292,4.45-9.124,7.081
		c-2.841,2.639-5.282,5.606-7.338,8.89C282.963,119.997,281.534,123.661,280.685,127.554z"/>
	<path fill="#00ff00" d="M205.903,140.86c0.342-0.226,0.85-0.331,0.893-0.92c-0.425-0.243-0.849-0.493-1.279-0.73
		c-5.599-3.086-10.815-6.728-15.69-10.857c-3.17-2.684-6.119-5.605-9.021-8.572c-8.628-8.818-15.809-18.691-21.484-29.645
		c-1.225-2.365-2.282-4.816-3.416-7.228c-0.117-0.249-0.126-0.594-0.585-0.59c-0.031,0.334-0.072,0.668-0.093,1.004
		c-0.388,6.458,0.261,12.833,1.686,19.122c1.709,7.544,4.184,14.817,8.07,21.554c0.125,0.216,0.438,0.449,0.171,0.776
		c-1.768-0.783-3.823-2.056-5.656-3.472c-1.685-1.302-3.239-2.745-4.726-4.267c-0.328-0.336-0.614-0.748-1.199-0.961
		c-0.13,0.689-0.092,1.273,0.022,1.832c0.294,1.449,0.53,2.923,0.98,4.325c2.167,6.761,5.427,12.911,10.342,18.11
		c0.158,0.167,0.394,0.318,0.227,0.722c-0.692-0.053-1.431-0.049-2.148-0.176c-2.922-0.519-5.787-1.252-8.518-2.442
		c-1.176-0.513-2.346-1.039-3.524-1.546c-0.208-0.089-0.452-0.222-0.688,0.109c0.452,1.172,1.119,2.26,1.872,3.298
		c1.194,1.644,2.536,3.16,4.045,4.52c1.174,1.058,2.387,2.072,3.575,3.113c0.17,0.149,0.302,0.342,0.441,0.503
		c-0.103,0.109-0.128,0.157-0.166,0.171c-0.185,0.068-0.372,0.129-0.56,0.188c-2.685,0.842-5.423,1.002-8.203,0.642
		c-0.682-0.088-1.367-0.148-2.05-0.221c-0.04,0.098-0.08,0.196-0.12,0.294c0.604,0.63,1.323,1.128,2.053,1.606
		c4.107,2.688,8.677,4.003,13.518,4.387c5.886,0.466,11.62-0.411,17.222-2.225c2.304-0.746,4.543-1.658,6.73-2.695
		C194.609,147.749,200.372,144.509,205.903,140.86z"/>
	<path fill="#00ff00" d="M322.107,153.283c5.602,1.814,11.336,2.692,17.222,2.225c4.841-0.383,9.411-1.699,13.518-4.387
		c0.73-0.478,1.449-0.976,2.053-1.606c-0.04-0.098-0.08-0.196-0.12-0.294c-0.683,0.073-1.369,0.133-2.05,0.221
		c-2.78,0.36-5.518,0.199-8.203-0.642c-0.188-0.059-0.375-0.12-0.56-0.188c-0.037-0.014-0.062-0.062-0.166-0.171
		c0.139-0.161,0.271-0.354,0.441-0.503c1.189-1.041,2.402-2.055,3.575-3.113c1.509-1.36,2.851-2.877,4.044-4.52
		c0.754-1.038,1.421-2.126,1.872-3.298c-0.236-0.33-0.481-0.198-0.688-0.109c-1.178,0.507-2.348,1.034-3.524,1.546
		c-2.731,1.191-5.596,1.924-8.518,2.442c-0.716,0.127-1.456,0.123-2.148,0.176c-0.167-0.403,0.069-0.555,0.227-0.722
		c4.916-5.198,8.175-11.349,10.342-18.11c0.45-1.403,0.686-2.876,0.98-4.325c0.113-0.559,0.151-1.142,0.022-1.832
		c-0.585,0.213-0.871,0.625-1.199,0.961c-1.487,1.521-3.041,2.964-4.726,4.267c-1.833,1.417-3.887,2.689-5.656,3.472
		c-0.267-0.327,0.046-0.56,0.171-0.776c3.887-6.738,6.361-14.011,8.07-21.554c1.425-6.289,2.074-12.665,1.686-19.122
		c-0.02-0.336-0.061-0.67-0.093-1.004c-0.459-0.004-0.468,0.341-0.585,0.59c-1.134,2.412-2.191,4.863-3.416,7.228
		c-5.676,10.954-12.857,20.826-21.484,29.645c-2.903,2.967-5.851,5.888-9.021,8.572c-4.876,4.129-10.091,7.772-15.69,10.857
		c-0.431,0.237-0.854,0.487-1.279,0.73c0.043,0.589,0.551,0.694,0.893,0.92c5.531,3.649,11.293,6.89,17.28,9.728
		C317.564,151.625,319.803,152.537,322.107,153.283z"/>
	<path fill="#00ff00" d="M159.506,299.701c-0.056,4.897,0.329,9.768,1.067,14.613c1.091,7.159,2.995,14.093,5.75,20.787
		c1.565,3.802,3.517,7.401,5.896,10.76c0.276,0.389,0.474,0.866,1.052,1.099c0.12-0.419,0.242-0.782,0.327-1.152
		c1.16-5.061,2.729-9.999,4.54-14.859c2.079-5.582,4.872-10.794,8.283-15.674c0.3-0.429,0.552-0.919,1.1-1.266
		c0.209,0.659,0.236,1.242,0.312,1.817c0.312,2.348,0.563,4.707,0.963,7.041c0.682,3.971,2.096,7.706,3.9,11.297
		c0.089,0.177,0.15,0.484,0.547,0.332c-0.037-0.478-0.071-0.968-0.115-1.456c-0.248-2.804-0.566-5.603-0.733-8.411
		c-0.275-4.637-0.377-9.277-0.076-13.921c0.227-3.504,0.607-6.983,1.389-10.412c0.152-0.666,0.271-1.339,0.474-2.355
		c-0.586,0.373-0.887,0.536-1.156,0.741c-1.572,1.195-3.183,2.345-4.695,3.612c-5.546,4.648-10.022,10.205-13.73,16.397
		c-0.685,1.143-1.319,2.317-1.989,3.47c-0.113,0.195-0.171,0.484-0.602,0.457c-0.134-0.416-0.3-0.863-0.422-1.322
		c-1.746-6.565-2.689-13.253-2.977-20.032c-0.113-2.664-0.087-5.334-0.095-8.002c-0.007-2.374,0.128-4.744,0.49-7.09
		c1.09-7.056,2.781-13.94,5.941-20.395c0.095-0.195,0.112-0.428,0.191-0.746c-0.316,0.022-0.506,0.021-0.69,0.051
		c-2.837,0.464-5.588,1.223-8.227,2.376c-0.283,0.124-0.563,0.402-1.017,0.158c0.306-0.856,0.585-1.692,0.902-2.514
		c1.725-4.472,3.721-8.823,5.875-13.103c0.465-0.925,0.878-1.877,1.286-2.829c0.084-0.197,0.04-0.449,0.065-0.809
		c-0.461,0.28-0.819,0.451-1.123,0.691c-1.049,0.823-2.113,1.63-3.11,2.513c-6.572,5.815-11.959,12.593-16.299,20.208
		c-1.886,3.309-3.487,6.755-4.768,10.344c-0.085,0.238-0.075,0.509-0.111,0.78c2.526-1.335,4.935-2.687,7.414-3.898
		c3.157-1.542,6.136-2.465,7.879-2.587c-0.076,0.299-0.128,0.576-0.216,0.84C160.562,284.538,159.593,292.055,159.506,299.701z"/>
	<path fill="#00ff00" d="M337.778,267.458c-2.639-1.153-5.39-1.912-8.227-2.376c-0.185-0.03-0.375-0.029-0.69-0.051
		c0.079,0.318,0.095,0.551,0.191,0.746c3.16,6.455,4.851,13.339,5.941,20.395c0.362,2.346,0.497,4.716,0.49,7.09
		c-0.008,2.667,0.018,5.338-0.095,8.002c-0.288,6.779-1.231,13.467-2.977,20.032c-0.122,0.459-0.288,0.906-0.422,1.322
		c-0.43,0.027-0.488-0.262-0.602-0.457c-0.67-1.153-1.304-2.326-1.989-3.47c-3.708-6.191-8.184-11.748-13.73-16.397
		c-1.512-1.267-3.123-2.417-4.695-3.612c-0.269-0.204-0.569-0.367-1.156-0.741c0.203,1.016,0.322,1.689,0.474,2.355
		c0.781,3.429,1.162,6.908,1.389,10.412c0.301,4.644,0.199,9.285-0.076,13.921c-0.167,2.808-0.485,5.608-0.733,8.411
		c-0.043,0.488-0.077,0.977-0.115,1.456c0.396,0.152,0.458-0.155,0.547-0.332c1.804-3.591,3.218-7.326,3.9-11.297
		c0.401-2.333,0.651-4.692,0.963-7.041c0.076-0.575,0.104-1.158,0.312-1.817c0.548,0.347,0.8,0.837,1.1,1.266
		c3.411,4.88,6.204,10.092,8.283,15.674c1.811,4.861,3.38,9.798,4.54,14.859c0.085,0.371,0.207,0.733,0.327,1.152
		c0.577-0.232,0.776-0.709,1.052-1.099c2.379-3.36,4.331-6.959,5.896-10.76c2.755-6.694,4.659-13.628,5.75-20.787
		c0.738-4.845,1.123-9.716,1.067-14.613c-0.087-7.646-1.057-15.163-3.492-22.448c-0.088-0.264-0.14-0.54-0.216-0.84
		c1.743,0.122,4.722,1.045,7.879,2.587c2.479,1.211,4.888,2.563,7.414,3.898c-0.036-0.271-0.026-0.542-0.111-0.78
		c-1.281-3.59-2.882-7.035-4.768-10.344c-4.34-7.615-9.727-14.393-16.299-20.208c-0.997-0.882-2.062-1.69-3.11-2.513
		c-0.305-0.239-0.662-0.411-1.123-0.691c0.024,0.36-0.02,0.612,0.065,0.809c0.408,0.952,0.82,1.905,1.286,2.829
		c2.154,4.28,4.15,8.631,5.875,13.103c0.317,0.821,0.595,1.657,0.902,2.514C338.341,267.86,338.061,267.582,337.778,267.458z"/>
	<path fill="#00ff00" d="M111.769,295.084c0.113-0.114,0.288-0.297-0.023-0.552c-1.963,0.728-3.884,1.709-6.233,2.458
		c0.348-0.412,0.474-0.596,0.634-0.744c5.16-4.783,9.776-10.059,14.066-15.62c3.469-4.497,6.868-9.049,10.231-13.626
		c3.418-4.652,7.413-8.719,11.933-12.297c5.432-4.299,11.166-8.149,17.116-11.686c1.103-0.656,2.204-1.319,3.273-2.029
		c0.571-0.38,1.127-0.816,1.592-1.317c1.086-1.171,1.018-2.595-0.189-3.651c-0.472-0.413-1.074-0.686-1.641-0.976
		c-0.519-0.265-1.071-0.467-1.643-0.711c0.273-0.674,0.777-1.009,1.234-1.357c2.631-2.007,5.224-4.069,7.929-5.971
		c9.522-6.698,19.966-11.127,31.58-12.604c0.342-0.044,0.686-0.103,1.017-0.197c0.475-0.136,0.695-0.621,0.441-1.06
		c-0.191-0.331-0.439-0.694-0.756-0.874c-0.549-0.311-1.154-0.582-1.769-0.706c-0.866-0.174-1.761-0.266-2.645-0.276
		c-3.133-0.036-6.2,0.487-9.212,1.295c-6.781,1.819-13.06,4.768-18.934,8.588c-3.73,2.426-7.288,5.089-10.704,7.94
		c-0.568,0.474-1.123,0.971-1.633,1.505c-0.371,0.389-0.706,0.83-0.973,1.296c-0.506,0.883-0.459,1.796,0.028,2.684
		c0.365,0.667,0.915,1.155,1.539,1.572c0.315,0.21,0.618,0.438,1.004,0.713c-0.415,0.216-0.718,0.376-1.023,0.533
		c-2.853,1.473-5.661,3.022-8.329,4.816c-6.129,4.122-11.795,8.789-16.896,14.143c-4.774,5.011-9.324,10.22-13.642,15.623
		c-5.119,6.406-10.256,12.796-15.519,19.084c-2.98,3.56-5.902,7.173-9.289,10.369c-0.136,0.129-0.231,0.302-0.423,0.559
		c0.424,0.087,0.744,0.198,1.068,0.212c2.089,0.091,4.144-0.167,6.154-0.721c3.135-0.865,5.945-2.395,8.515-4.359
		C110.422,296.544,111.075,295.784,111.769,295.084z"/>
	<path fill="#00ff00" d="M400.38,291.079c-5.263-6.288-10.4-12.678-15.519-19.084c-4.318-5.403-8.868-10.611-13.642-15.623
		c-5.101-5.354-10.768-10.022-16.896-14.143c-2.668-1.794-5.477-3.343-8.329-4.816c-0.305-0.158-0.608-0.317-1.023-0.533
		c0.386-0.275,0.689-0.503,1.004-0.713c0.624-0.417,1.174-0.905,1.539-1.572c0.486-0.888,0.534-1.8,0.028-2.684
		c-0.267-0.466-0.602-0.907-0.973-1.296c-0.51-0.535-1.065-1.031-1.633-1.505c-3.416-2.851-6.974-5.514-10.704-7.94
		c-5.875-3.82-12.154-6.769-18.934-8.588c-3.012-0.808-6.079-1.332-9.212-1.295c-0.884,0.01-1.779,0.102-2.645,0.276
		c-0.615,0.124-1.22,0.395-1.769,0.706c-0.318,0.18-0.565,0.543-0.756,0.874c-0.254,0.439-0.034,0.925,0.441,1.06
		c0.331,0.095,0.675,0.154,1.017,0.197c11.614,1.477,22.058,5.907,31.58,12.604c2.705,1.902,5.298,3.965,7.929,5.971
		c0.457,0.349,0.96,0.683,1.234,1.357c-0.572,0.244-1.123,0.446-1.643,0.711c-0.567,0.29-1.169,0.563-1.641,0.976
		c-1.207,1.056-1.276,2.481-0.189,3.651c0.465,0.501,1.02,0.937,1.592,1.317c1.068,0.71,2.169,1.373,3.273,2.029
		c5.95,3.537,11.684,7.387,17.116,11.686c4.52,3.578,8.516,7.645,11.933,12.297c3.363,4.577,6.762,9.129,10.231,13.626
		c4.289,5.561,8.906,10.838,14.066,15.62c0.16,0.148,0.285,0.332,0.634,0.744c-2.35-0.749-4.271-1.73-6.234-2.458
		c-0.311,0.256-0.137,0.439-0.023,0.552c0.694,0.7,1.348,1.46,2.125,2.054c2.569,1.965,5.38,3.494,8.515,4.359
		c2.01,0.555,4.065,0.813,6.154,0.721c0.324-0.014,0.644-0.125,1.068-0.212c-0.192-0.257-0.287-0.43-0.423-0.559
		C406.282,298.252,403.36,294.639,400.38,291.079z"/>
	<path fill="#00ff00" d="M190.8,226.211c-2.218,0.48-4.332,1.301-6.389,2.376c0.349,0.727,0.929,1.203,1.46,1.702
		c2.387,2.247,4.498,4.706,6.152,7.556c1.143,1.969,2.508,3.794,4.047,5.473c3.41,3.721,7.465,6.43,12.387,7.74
		c1.049,0.279,2.107,0.527,3.15,0.824c1.708,0.485,3.427,0.942,5.106,1.514c2.736,0.931,4.794,2.702,6.13,5.28
		c0.409,0.788,0.782,1.595,1.175,2.392c0.081,0.164,0.124,0.391,0.4,0.314c0.053-0.073,0.145-0.143,0.152-0.221
		c0.196-2.165,0.401-4.33,0.259-6.508c-0.145-2.219-0.374-4.43-0.781-6.617c-0.709-3.806-1.838-7.486-3.59-10.941
		c-2.855-5.629-7.194-9.473-13.488-10.833C201.588,225.099,196.186,225.045,190.8,226.211z M210.049,231.47
		c0.768,0.035,1.354,0.674,1.34,1.46c-0.014,0.769-0.638,1.407-1.389,1.42c-0.759,0.013-1.396-0.61-1.413-1.383
		C208.568,232.132,209.251,231.433,210.049,231.47z M205.011,231.96c1.311,0.007,2.362,1.037,2.383,2.334
		c0.02,1.254-1.059,2.373-2.331,2.416c-1.283,0.043-2.377-0.989-2.425-2.289C202.587,233.027,203.622,231.953,205.011,231.96z
		 M201.468,237.412c0.955,1.185,2.133,2.05,3.625,2.423c1.585,0.396,3.132,0.259,4.621-0.424c1.502-0.689,2.496-1.882,3.203-3.407
		c0.174,0.162,0.327,0.236,0.359,0.345c0.425,1.447,0.507,2.899,0.126,4.379c-0.828,3.216-3.71,5.01-6.982,4.449
		c-4.081-0.7-8.109-5.007-7.575-10.04c0.104-0.979,0.313-1.922,1.041-2.72C199.826,234.29,200.296,235.959,201.468,237.412z"/>
	<path fill="#00ff00" d="M297.03,226.262c-6.294,1.36-10.633,5.204-13.488,10.833c-1.752,3.455-2.88,7.135-3.59,10.941
		c-0.408,2.187-0.637,4.398-0.781,6.617c-0.142,2.178,0.063,4.343,0.259,6.508c0.007,0.078,0.099,0.148,0.152,0.221
		c0.276,0.077,0.319-0.15,0.4-0.314c0.394-0.796,0.767-1.603,1.175-2.392c1.336-2.578,3.394-4.348,6.13-5.28
		c1.679-0.572,3.398-1.028,5.106-1.514c1.044-0.297,2.101-0.544,3.15-0.824c4.922-1.31,8.977-4.019,12.387-7.74
		c1.539-1.679,2.904-3.504,4.047-5.473c1.654-2.85,3.765-5.31,6.152-7.556c0.531-0.5,1.11-0.976,1.46-1.702
		c-2.057-1.075-4.171-1.896-6.389-2.376C307.814,225.045,302.412,225.099,297.03,226.262z M298.988,231.96
		c1.389-0.008,2.424,1.066,2.372,2.462c-0.048,1.3-1.142,2.332-2.425,2.289c-1.272-0.043-2.351-1.162-2.331-2.416
		C296.626,232.997,297.677,231.967,298.988,231.96z M293.951,231.47c0.798-0.037,1.482,0.663,1.463,1.497
		c-0.017,0.773-0.654,1.396-1.413,1.383c-0.751-0.013-1.375-0.651-1.389-1.42C292.596,232.143,293.182,231.505,293.951,231.47z
		 M297.579,245.176c-3.271,0.561-6.154-1.233-6.982-4.449c-0.381-1.48-0.299-2.932,0.126-4.379c0.032-0.109,0.185-0.183,0.359-0.345
		c0.707,1.525,1.701,2.717,3.203,3.407c1.489,0.683,3.036,0.82,4.621,0.424c1.493-0.373,2.67-1.238,3.625-2.423
		c1.171-1.453,1.642-3.122,1.581-4.995c0.728,0.797,0.937,1.741,1.041,2.72C305.688,240.169,301.66,244.476,297.579,245.176z"/>
	<path fill="#00ff00" d="M194.589,187.757c0.715,0.437,1.431,0.878,2.169,1.274c2.749,1.475,5.646,2.585,8.619,3.518
		c1.41,0.443,2.816,0.92,4.177,1.493c2.313,0.974,4.292,2.424,5.809,4.453c0.163,0.218,0.265,0.483,0.445,0.82
		c-1.482-0.251-2.832-0.503-4.19-0.704c-1.964-0.291-3.283-0.297-4.113-0.049c0.388,1.02,0.924,1.955,1.503,2.865
		c1.197,1.881,2.604,3.597,4.101,5.245c3.096,3.408,6.475,6.51,10.083,9.367c2.951,2.337,5.696,4.896,8.069,7.823
		c1.116,1.377,2.126,2.846,3.1,4.329c0.788,1.201,1.28,2.548,1.63,3.951c0.735,2.944,1.003,5.936,0.948,8.958
		c-0.06,3.259-0.235,6.513-0.631,9.752c-0.027,0.218-0.004,0.443-0.004,1.009c0.369-0.612,0.598-0.919,0.753-1.259
		c2.343-5.154,3.686-10.52,3.331-16.223c-0.376-6.037-2.527-11.333-6.787-15.683c-1.449-1.479-2.992-2.875-4.567-4.221
		c-2.139-1.828-4.352-3.57-6.53-5.353c-0.227-0.186-0.527-0.334-0.604-0.715c1.012,0.034,1.858,0.586,2.887,0.408
		c-0.117-0.258-0.179-0.442-0.279-0.605c-1.344-2.197-2.397-4.535-3.389-6.905c-0.495-1.183-1-2.364-1.548-3.523
		c-0.655-1.385-1.413-2.712-2.356-3.93c-1.048-1.354-2.337-2.395-3.876-3.139c-1.655-0.8-3.391-1.332-5.189-1.696
		c-4.313-0.872-8.691-1.264-13.051-1.787c-0.269-0.032-0.544-0.004-0.815-0.004C194.234,187.565,194.438,187.665,194.589,187.757z"
		/>
	<path fill="#00ff00" d="M309.411,187.757c0.151-0.092,0.355-0.193,0.306-0.532c-0.27,0-0.546-0.028-0.815,0.004
		c-4.36,0.524-8.738,0.915-13.051,1.787c-1.798,0.364-3.535,0.896-5.189,1.696c-1.54,0.745-2.829,1.785-3.876,3.139
		c-0.943,1.218-1.701,2.545-2.356,3.93c-0.548,1.159-1.053,2.34-1.548,3.523c-0.992,2.37-2.046,4.708-3.389,6.905
		c-0.099,0.162-0.161,0.347-0.279,0.605c1.029,0.178,1.875-0.374,2.887-0.408c-0.076,0.381-0.377,0.529-0.604,0.715
		c-2.177,1.784-4.39,3.525-6.53,5.353c-1.575,1.346-3.118,2.741-4.567,4.221c-4.26,4.349-6.411,9.646-6.787,15.683
		c-0.355,5.703,0.988,11.069,3.331,16.223c0.155,0.34,0.384,0.647,0.753,1.259c0-0.566,0.023-0.791-0.004-1.009
		c-0.396-3.239-0.572-6.493-0.631-9.752c-0.055-3.022,0.212-6.014,0.948-8.958c0.35-1.403,0.842-2.751,1.63-3.951
		c0.974-1.483,1.984-2.952,3.1-4.329c2.372-2.927,5.118-5.485,8.069-7.823c3.608-2.858,6.987-5.959,10.083-9.367
		c1.497-1.648,2.905-3.364,4.101-5.245c0.579-0.909,1.114-1.844,1.503-2.865c-0.83-0.248-2.149-0.242-4.113,0.049
		c-1.358,0.201-2.708,0.453-4.19,0.704c0.18-0.337,0.282-0.602,0.445-0.82c1.516-2.029,3.496-3.479,5.809-4.453
		c1.361-0.573,2.767-1.051,4.177-1.493c2.973-0.933,5.87-2.043,8.619-3.518C307.98,188.635,308.696,188.195,309.411,187.757z"/>
	<path fill="#00ff00" d="M157.061,212.923c1.492-2.21,2.958-4.438,4.45-6.647c2.294-3.396,4.541-6.826,6.915-10.166
		c3.3-4.642,6.997-8.951,11.316-12.688c1.567-1.356,3.22-2.613,4.829-3.922c0.536-0.436,1.095-0.853,1.574-1.346
		c0.724-0.745,0.666-1.48-0.088-2.187c-0.498-0.466-1.092-0.698-1.763-0.582c-0.53,0.092-1.057,0.244-1.561,0.433
		c-2.137,0.803-4.115,1.91-5.999,3.192c-4.034,2.744-7.515,6.087-10.618,9.834c-3.001,3.623-5.572,7.544-7.965,11.586
		c-2.063,3.484-4.091,6.988-6.152,10.472c-1.561,2.638-3.245,5.195-5.217,7.548c-1.173,1.4-2.403,2.753-3.587,4.144
		c-0.543,0.638-1.084,1.287-1.541,1.986c-0.551,0.843-0.397,1.588,0.36,2.228c0.464,0.392,1.01,0.639,1.605,0.709
		c1.845,0.217,3.648-0.097,5.418-0.568c0.859-0.229,1.048-1.084,0.439-1.745c-0.227-0.246-0.536-0.429-0.835-0.593
		c-0.25-0.137-0.537-0.205-0.94-0.351c0.23-0.274,0.315-0.396,0.419-0.498C151.484,220.466,154.428,216.822,157.061,212.923z"/>
	<path fill="#00ff00" d="M354.524,225.205c-0.609,0.661-0.419,1.517,0.439,1.745c1.77,0.471,3.573,0.786,5.418,0.568
		c0.596-0.07,1.142-0.317,1.605-0.709c0.757-0.64,0.911-1.385,0.36-2.228c-0.457-0.699-0.998-1.348-1.541-1.986
		c-1.184-1.391-2.414-2.744-3.587-4.144c-1.971-2.354-3.656-4.911-5.217-7.548c-2.062-3.484-4.09-6.989-6.152-10.472
		c-2.393-4.041-4.964-7.963-7.965-11.586c-3.104-3.747-6.584-7.09-10.618-9.834c-1.884-1.282-3.862-2.389-5.999-3.192
		c-0.504-0.189-1.031-0.341-1.561-0.433c-0.671-0.116-1.265,0.116-1.763,0.582c-0.754,0.706-0.811,1.441-0.088,2.187
		c0.479,0.493,1.038,0.91,1.574,1.346c1.609,1.309,3.261,2.566,4.829,3.922c4.319,3.737,8.016,8.046,11.316,12.688
		c2.374,3.34,4.621,6.769,6.915,10.166c1.492,2.21,2.958,4.437,4.45,6.647c2.633,3.9,5.577,7.543,8.942,10.84
		c0.104,0.102,0.189,0.223,0.419,0.498c-0.403,0.147-0.691,0.214-0.94,0.351C355.06,224.776,354.751,224.958,354.524,225.205z"/>
	<path fill="#00ff00" d="M109.048,246.878c2.004-1.005,3.77-2.339,5.378-3.891c2.172-2.098,4.129-4.382,5.902-6.826
		c2.234-3.08,4.218-6.32,6.171-9.583c2.687-4.489,5.376-8.976,8.113-13.434c3.658-5.958,7.815-11.52,13.102-16.162
		c0.13-0.114,0.209-0.286,0.393-0.544c-1.084,0.105-1.961,0.43-2.828,0.757c-6.223,2.35-11.473,6.095-15.837,11.098
		c-2.745,3.147-4.862,6.706-6.769,10.399c-2.696,5.221-5.096,10.579-7.378,15.991c-1.656,3.928-3.725,7.623-6.239,11.067
		c-0.29,0.397-0.563,0.806-0.844,1.21c0.062,0.061,0.125,0.122,0.187,0.184C108.615,247.057,108.839,246.983,109.048,246.878z"/>
	<path fill="#00ff00" d="M374.56,208.295c-4.364-5.003-9.615-8.749-15.837-11.098c-0.867-0.327-1.744-0.652-2.828-0.757
		c0.184,0.258,0.263,0.429,0.393,0.544c5.287,4.642,9.444,10.204,13.102,16.162c2.737,4.458,5.426,8.945,8.113,13.434
		c1.953,3.262,3.937,6.502,6.171,9.583c1.772,2.444,3.729,4.728,5.902,6.826c1.607,1.552,3.374,2.886,5.378,3.891
		c0.209,0.105,0.433,0.179,0.651,0.267c0.062-0.061,0.125-0.122,0.187-0.184c-0.281-0.404-0.554-0.813-0.844-1.21
		c-2.515-3.444-4.583-7.139-6.239-11.067c-2.282-5.412-4.682-10.77-7.378-15.991C379.422,215.001,377.305,211.442,374.56,208.295z"
		/>
	<path fill="#00ff00" d="M193.119,163.866c0.287,0.19,0.591,0.364,0.906,0.5c2.995,1.295,6.046,2.448,9.257,3.061
		c3.441,0.657,6.908,1.18,10.36,1.782c3.019,0.526,5.99,1.238,8.853,2.361c3.08,1.208,5.803,2.941,8.099,5.336
		c1.203,1.255,2.245,2.632,3.113,4.133c0.94,1.624,1.813,3.286,2.757,4.907c0.495,0.85,1.038,1.682,1.639,2.46
		c0.428,0.554,1.218,0.537,1.688,0.011c0.215-0.24,0.394-0.593,0.415-0.908c0.034-0.483-0.037-0.986-0.141-1.463
		c-0.855-3.903-2.423-7.516-4.627-10.835c-1.824-2.747-4.133-5.038-6.964-6.762c-2.457-1.496-5.049-2.72-7.848-3.411
		c-2.633-0.65-5.295-1.185-7.948-1.754c-4.008-0.86-7.993-1.799-11.832-3.267c-1.152-0.441-2.292-0.914-3.455-1.326
		c-0.645-0.228-1.325-0.359-1.989-0.534c-1.276,0.088-2.424,0.733-3.112,1.828C191.418,161.375,191.751,162.961,193.119,163.866z"/>
	<path fill="#00ff00" d="M310.881,163.866c1.368-0.905,1.701-2.492,0.827-3.882c-0.688-1.094-1.836-1.74-3.112-1.828
		c-0.664,0.175-1.344,0.306-1.989,0.534c-1.162,0.411-2.303,0.885-3.455,1.326c-3.839,1.468-7.824,2.407-11.832,3.267
		c-2.653,0.569-5.315,1.104-7.948,1.754c-2.799,0.691-5.391,1.915-7.848,3.411c-2.831,1.724-5.139,4.015-6.964,6.762
		c-2.204,3.319-3.772,6.931-4.627,10.835c-0.105,0.477-0.175,0.981-0.141,1.463c0.022,0.314,0.201,0.667,0.415,0.908
		c0.47,0.526,1.26,0.542,1.688-0.011c0.601-0.778,1.143-1.609,1.639-2.46c0.944-1.621,1.817-3.283,2.757-4.907
		c0.869-1.501,1.91-2.878,3.114-4.133c2.296-2.394,5.019-4.128,8.099-5.336c2.864-1.123,5.834-1.835,8.853-2.361
		c3.452-0.602,6.919-1.125,10.36-1.782c3.211-0.613,6.262-1.766,9.257-3.061C310.29,164.23,310.594,164.056,310.881,163.866z"/>
	<path fill="#00ff00" d="M219.623,289.454c3.7-5.494,6.997-11.224,9.946-17.154c0.593-1.192,1.118-2.418,1.661-3.634
		c0.077-0.172,0.071-0.382,0.104-0.574c-0.316,0.048-0.412,0.225-0.541,0.374c-2.042,2.346-4.092,4.686-6.133,7.033
		c-2.755,3.168-5.401,6.422-7.876,9.818c-6.661,9.138-10.702,19.298-11.803,30.563c-0.481,4.923-0.461,9.862,0.449,14.758
		c0.803,4.324,2.354,8.348,4.814,12.007c0.269,0.399,0.572,0.776,0.894,1.209c0.073-0.158,0.113-0.203,0.111-0.246
		c-0.008-0.145-0.016-0.294-0.052-0.434c-1.493-5.864-2.161-11.833-2.338-17.873c-0.233-7.96,1.181-15.633,4.003-23.043
		C214.587,297.726,216.91,293.482,219.623,289.454z"/>
	<path fill="#00ff00" d="M279.341,275.5c-2.041-2.347-4.091-4.687-6.133-7.033c-0.129-0.149-0.225-0.326-0.541-0.374
		c0.033,0.192,0.027,0.401,0.104,0.574c0.542,1.216,1.068,2.442,1.661,3.634c2.949,5.93,6.245,11.66,9.946,17.154
		c2.713,4.027,5.036,8.272,6.762,12.805c2.822,7.411,4.236,15.084,4.003,23.043c-0.177,6.04-0.845,12.008-2.338,17.873
		c-0.036,0.14-0.043,0.288-0.052,0.434c-0.002,0.043,0.037,0.088,0.111,0.246c0.322-0.434,0.626-0.81,0.894-1.209
		c2.46-3.659,4.011-7.683,4.814-12.007c0.909-4.896,0.93-9.835,0.449-14.758c-1.101-11.266-5.143-21.425-11.803-30.563
		C284.742,281.922,282.096,278.668,279.341,275.5z"/>
	<path fill="#00ff00" d="M104.034,282.441c-0.337-0.017-0.616-0.035-0.895-0.044c-0.938-0.03-1.876-0.046-2.813-0.093
		c-0.218-0.011-0.509-0.004-0.548-0.426c0.181-0.167,0.395-0.365,0.608-0.563c1.593-1.479,3.202-2.942,4.776-4.442
		c4.304-4.104,8.16-8.594,11.627-13.427c2.99-4.167,5.199-8.729,7.022-13.5c1.48-3.874,2.993-7.736,4.489-11.604
		c0.102-0.263,0.187-0.533,0.28-0.799c-0.051-0.033-0.103-0.067-0.154-0.1c-0.189,0.186-0.403,0.353-0.564,0.561
		c-0.754,0.978-1.537,1.938-2.231,2.958c-3.252,4.778-6.542,9.531-9.697,14.372c-4.217,6.471-8.908,12.58-13.927,18.435
		c-3.864,4.508-8.19,8.571-12.61,12.53c-0.313,0.28-0.741,0.476-0.86,0.952c2.221,0.444,6.817-0.196,10.003-1.38
		C100.876,285.002,103.096,283.635,104.034,282.441z"/>
	<path fill="#00ff00" d="M414.604,286.298c-4.42-3.959-8.746-8.022-12.61-12.53c-5.019-5.855-9.71-11.963-13.927-18.435
		c-3.155-4.841-6.445-9.595-9.697-14.372c-0.694-1.02-1.477-1.98-2.231-2.958c-0.16-0.208-0.374-0.375-0.564-0.561
		c-0.051,0.033-0.103,0.067-0.154,0.1c0.093,0.266,0.178,0.536,0.28,0.799c1.496,3.868,3.009,7.73,4.489,11.604
		c1.823,4.771,4.032,9.333,7.022,13.5c3.467,4.833,7.324,9.323,11.627,13.427c1.573,1.5,3.183,2.962,4.776,4.442
		c0.213,0.198,0.427,0.396,0.608,0.563c-0.039,0.422-0.331,0.415-0.548,0.426c-0.937,0.047-1.876,0.063-2.813,0.093
		c-0.279,0.009-0.558,0.027-0.895,0.044c0.938,1.194,3.158,2.561,5.495,3.429c3.186,1.184,7.782,1.824,10.003,1.38
		C415.345,286.774,414.917,286.578,414.604,286.298z"/>
	<path fill="#00ff00" d="M114.6,310.077c3.411-4.907,6.518-9.998,9.431-15.218c2.922-5.236,6.431-10.059,10.761-14.247
		c0.922-0.892,1.847-1.783,2.759-2.685c0.315-0.312,0.625-0.636,0.884-0.993c0.439-0.608,0.36-1.227-0.179-1.718
		c-0.606-0.552-1.304-0.682-2.057-0.367c-0.408,0.17-0.813,0.369-1.176,0.619c-1.015,0.7-2.044,1.386-3,2.161
		c-3.167,2.565-5.862,5.582-8.193,8.911c-1.896,2.707-3.718,5.468-5.509,8.246c-1.845,2.861-3.598,5.781-5.419,8.658
		c-1.877,2.966-3.958,5.779-6.353,8.356c-1.142,1.229-2.221,2.516-3.341,3.765c-0.439,0.489-0.546,1.034-0.368,1.647
		c0.315,1.088,1.539,1.992,2.677,1.985c0.727,0.011,1.372-0.263,1.907-0.707c0.795-0.659,1.578-1.348,2.28-2.103
		C111.521,314.433,113.077,312.267,114.6,310.077z"/>
	<path fill="#00ff00" d="M397.453,311.8c-2.395-2.577-4.476-5.39-6.353-8.356c-1.821-2.877-3.574-5.797-5.419-8.658
		c-1.791-2.778-3.613-5.539-5.509-8.246c-2.331-3.329-5.026-6.346-8.193-8.911c-0.956-0.775-1.985-1.462-3-2.161
		c-0.363-0.25-0.768-0.449-1.176-0.619c-0.753-0.314-1.451-0.184-2.057,0.367c-0.54,0.491-0.619,1.11-0.179,1.718
		c0.258,0.357,0.569,0.682,0.884,0.993c0.912,0.903,1.836,1.793,2.759,2.685c4.33,4.188,7.839,9.011,10.761,14.247
		c2.913,5.22,6.019,10.311,9.43,15.218c1.522,2.19,3.078,4.356,4.898,6.311c0.703,0.755,1.485,1.444,2.28,2.103
		c0.535,0.444,1.18,0.718,1.907,0.707c1.138,0.007,2.362-0.898,2.677-1.985c0.178-0.614,0.07-1.158-0.368-1.647
		C399.674,314.316,398.595,313.029,397.453,311.8z"/>
	<path fill="#00ff00" d="M142.157,185.69c2.826,0.073,5.614-0.256,8.375-0.839c5.705-1.205,10.675-3.76,14.685-8.048
		c0.739-0.79,1.396-1.659,2.069-2.51c0.172-0.218,0.26-0.503,0.423-0.829c-2.229-0.843-4.569-1.2-6.559-2.76
		c0.424-0.158,0.721-0.296,1.032-0.379c3.002-0.798,6.014-1.556,9.007-2.385c2.572-0.713,5.06-1.659,7.391-2.979
		c0.325-0.184,0.615-0.429,0.921-0.646c-1.33-0.072-2.549,0.264-3.786,0.472c-1.264,0.212-2.517,0.491-3.778,0.717
		c-1.311,0.235-2.626,0.445-3.94,0.659c-1.266,0.206-2.532,0.409-3.799,0.604c-1.267,0.195-2.535,0.394-3.806,0.563
		c-1.271,0.169-2.546,0.311-3.821,0.449c-1.324,0.143-2.653,0.244-3.975,0.404c-1.242,0.15-2.527-0.085-3.842,0.337
		c0.245,0.383,0.389,0.705,0.617,0.949c0.842,0.898,1.663,1.828,2.586,2.637c1.037,0.909,2.178,1.698,3.268,2.547
		c0.217,0.169,0.407,0.373,0.663,0.61c-4.49,4.59-9.864,7.624-15.929,10.126C140.882,185.684,141.523,185.674,142.157,185.69z"/>
	<path fill="#00ff00" d="M352.046,172.105c0.923-0.81,1.743-1.739,2.586-2.637c0.228-0.243,0.372-0.566,0.617-0.949
		c-1.316-0.422-2.6-0.186-3.842-0.337c-1.322-0.16-2.651-0.261-3.975-0.404c-1.275-0.137-2.55-0.28-3.821-0.449
		c-1.271-0.169-2.538-0.368-3.806-0.563c-1.267-0.195-2.534-0.397-3.799-0.604c-1.314-0.214-2.629-0.424-3.94-0.659
		c-1.262-0.226-2.514-0.505-3.778-0.717c-1.237-0.208-2.456-0.544-3.786-0.472c0.306,0.217,0.596,0.462,0.921,0.646
		c2.331,1.32,4.819,2.266,7.391,2.979c2.993,0.829,6.005,1.588,9.006,2.385c0.311,0.083,0.608,0.221,1.032,0.379
		c-1.99,1.56-4.33,1.917-6.559,2.76c0.163,0.327,0.251,0.611,0.423,0.829c0.673,0.85,1.329,1.719,2.069,2.51
		c4.01,4.288,8.98,6.843,14.685,8.048c2.761,0.583,5.549,0.912,8.375,0.839c0.633-0.016,1.274-0.006,2.201-0.302
		c-6.066-2.502-11.439-5.536-15.929-10.126c0.256-0.237,0.446-0.441,0.663-0.61C349.868,173.803,351.01,173.014,352.046,172.105z"/>
	<path fill="#00ff00" d="M177.755,238.551c-0.227-0.322-0.463-0.642-0.73-0.93c-0.417-0.451-0.957-0.704-1.561-0.775
		c-0.843-0.099-1.435,0.541-1.273,1.378c0.055,0.284,0.179,0.563,0.312,0.823c0.202,0.395,0.428,0.78,0.662,1.157
		c2.178,3.512,3.704,7.299,4.775,11.28c0.256,0.953,0.517,1.907,0.835,2.841c1.072,3.15,2.969,5.665,5.833,7.407
		c0.928,0.564,1.878,1.091,2.811,1.647c0.283,0.169,0.543,0.378,0.856,0.598c-0.248,0.455-0.466,0.837-0.667,1.227
		c-0.315,0.614-0.673,1.214-0.917,1.856c-0.53,1.394-0.087,2.667,1.155,3.476c0.548,0.356,1.152,0.592,1.809,0.576
		c0.539-0.013,1.084-0.069,1.613-0.173c3.199-0.629,6.41-1.146,9.67-1.381c2.46-0.177,4.914-0.478,7.361-0.79
		c1.913-0.244,3.782-0.706,5.58-1.426c1.624-0.65,3.088-1.554,4.355-2.756c0.707-0.671,0.631-1.404-0.129-2.012
		c-0.517-0.415-1.104-0.439-1.682-0.228c-0.554,0.202-1.081,0.483-1.61,0.75c-1.907,0.964-3.919,1.666-6.01,2.042
		c-1.89,0.34-3.816,0.521-5.733,0.67c-3.597,0.278-7.183,0.606-10.708,1.419c-0.309,0.071-0.638,0.054-1.107,0.089
		c0.235-0.39,0.373-0.643,0.532-0.882c0.892-1.337,0.936-2.656-0.543-4.119c-0.625-0.618-1.376-1.12-2.112-1.613
		c-0.861-0.576-1.757-1.102-2.656-1.619c-1.941-1.116-3.163-2.794-3.854-4.886c-0.325-0.984-0.601-1.984-0.894-2.978
		C182.396,246.688,180.482,242.427,177.755,238.551z"/>
	<path fill="#00ff00" d="M328.536,236.846c-0.604,0.071-1.144,0.325-1.561,0.775c-0.267,0.288-0.503,0.608-0.73,0.93
		c-2.727,3.876-4.641,8.137-5.975,12.67c-0.293,0.994-0.569,1.994-0.894,2.978c-0.691,2.091-1.913,3.77-3.854,4.886
		c-0.899,0.517-1.795,1.042-2.656,1.619c-0.736,0.492-1.486,0.995-2.112,1.613c-1.479,1.463-1.434,2.782-0.543,4.119
		c0.159,0.239,0.298,0.492,0.532,0.882c-0.469-0.035-0.798-0.018-1.107-0.089c-3.525-0.813-7.111-1.142-10.708-1.419
		c-1.918-0.148-3.843-0.33-5.733-0.67c-2.091-0.376-4.102-1.078-6.01-2.042c-0.528-0.267-1.056-0.548-1.61-0.75
		c-0.578-0.211-1.165-0.187-1.682,0.228c-0.759,0.608-0.835,1.342-0.129,2.012c1.266,1.202,2.731,2.106,4.355,2.756
		c1.799,0.72,3.667,1.182,5.58,1.426c2.448,0.313,4.901,0.613,7.361,0.79c3.26,0.234,6.47,0.752,9.67,1.381
		c0.529,0.104,1.074,0.16,1.613,0.173c0.658,0.015,1.262-0.22,1.81-0.576c1.243-0.809,1.686-2.082,1.155-3.476
		c-0.244-0.642-0.601-1.242-0.917-1.856c-0.2-0.39-0.418-0.771-0.667-1.227c0.314-0.221,0.573-0.43,0.856-0.598
		c0.933-0.556,1.883-1.083,2.811-1.647c2.864-1.741,4.761-4.257,5.833-7.407c0.318-0.934,0.578-1.888,0.835-2.841
		c1.072-3.981,2.597-7.768,4.775-11.28c0.234-0.377,0.46-0.762,0.662-1.157c0.133-0.261,0.257-0.539,0.312-0.823
		C329.971,237.386,329.38,236.746,328.536,236.846z"/>
	<path fill="#00ff00" d="M234.579,412.337c-1.234-2.983-2.084-6.068-2.534-9.258c-0.248-1.759-0.377-3.534-0.568-5.301
		c-0.053-0.489-0.093-0.987-0.217-1.46c-0.25-0.955-0.974-1.359-1.912-1.106c-0.81,0.218-1.425,0.681-1.716,1.491
		c-0.133,0.37-0.262,0.752-0.309,1.139c-0.164,1.37-0.292,2.744-0.434,4.116c0.12,2.091,0.32,4.155,0.729,6.193
		c1.536,7.655,5.054,14.183,11.041,19.291c0.486,0.415,1.013,0.791,1.558,1.124c0.726,0.443,1.497,0.428,2.27,0.078
		c0.799-0.361,1.39-0.929,1.752-1.727c0.431-0.951,0.31-1.701-0.411-2.439c-0.241-0.246-0.525-0.449-0.782-0.681
		C239.45,420.55,236.452,416.864,234.579,412.337z"/>
	<path fill="#00ff00" d="M274.652,395.212c-0.938-0.253-1.662,0.151-1.912,1.106c-0.124,0.473-0.164,0.971-0.217,1.46
		c-0.191,1.767-0.32,3.542-0.568,5.301c-0.45,3.19-1.3,6.275-2.534,9.258c-1.873,4.527-4.871,8.213-8.468,11.46
		c-0.257,0.232-0.541,0.435-0.782,0.681c-0.721,0.738-0.843,1.488-0.411,2.439c0.362,0.798,0.953,1.366,1.752,1.727
		c0.773,0.35,1.544,0.365,2.27-0.078c0.545-0.333,1.072-0.709,1.558-1.124c5.987-5.108,9.505-11.636,11.041-19.291
		c0.409-2.038,0.608-4.102,0.729-6.193c-0.142-1.372-0.269-2.746-0.434-4.116c-0.046-0.387-0.176-0.77-0.309-1.139
		C276.077,395.892,275.462,395.43,274.652,395.212z"/>
	<path fill="#00ff00" d="M226.313,332.025c1.003-3.719,2.329-7.328,3.684-10.929c1.25-3.323,2.514-6.641,3.702-9.986
		c1.671-4.707,3.006-9.486,3.238-14.529c0.206-4.493-0.373-8.854-1.761-13.12c-0.071-0.218-0.194-0.419-0.387-0.829
		c-0.149,0.464-0.264,0.722-0.313,0.992c-0.268,1.454-0.461,2.926-0.789,4.366c-1.26,5.528-2.512,11.059-3.86,16.567
		c-1.796,7.339-3.353,14.713-3.841,22.276c-0.124,1.918-0.147,3.833,0.109,5.735C226.167,332.387,226.262,332.212,226.313,332.025z"
		/>
	<path fill="#00ff00" d="M269.526,283.623c-0.05-0.27-0.164-0.528-0.313-0.992c-0.194,0.41-0.316,0.611-0.387,0.829
		c-1.389,4.265-1.968,8.626-1.761,13.12c0.232,5.044,1.566,9.823,3.238,14.529c1.188,3.345,2.452,6.664,3.702,9.986
		c1.354,3.601,2.681,7.21,3.684,10.929c0.05,0.187,0.145,0.362,0.22,0.542c0.256-1.902,0.232-3.818,0.109-5.735
		c-0.488-7.563-2.044-14.937-3.841-22.276c-1.348-5.507-2.6-11.038-3.86-16.567C269.987,286.549,269.794,285.077,269.526,283.623z"
		/>
	<path fill="#00ff00" d="M213.535,276.239c0.708-0.342,1.392-0.746,2.042-1.188c0.357-0.243,0.675-0.589,0.912-0.953
		c0.319-0.489,0.294-1.034-0.042-1.532c-0.312-0.463-0.777-0.616-1.297-0.508c-0.578,0.119-1.146,0.292-1.711,0.465
		c-3.031,0.927-6.127,1.518-9.274,1.873c-2.452,0.277-4.913,0.518-7.343,0.934c-4.727,0.808-9.135,2.472-13.092,5.235
		c-0.323,0.226-0.65,0.452-0.944,0.714c-0.345,0.307-0.514,0.71-0.532,1.181c-0.058,1.482,1.409,3.004,2.976,2.993
		c0.557,0.033,1.051-0.302,1.542-0.639c2.009-1.379,4.181-2.436,6.498-3.17c1.55-0.492,3.122-0.935,4.709-1.29
		c2.455-0.549,4.937-0.979,7.397-1.506C208.179,278.246,210.94,277.492,213.535,276.239z"/>
	<path fill="#00ff00" d="M317.228,284.813c0.491,0.337,0.984,0.672,1.542,0.639c1.568,0.01,3.034-1.511,2.976-2.993
		c-0.018-0.471-0.187-0.874-0.532-1.181c-0.294-0.261-0.62-0.488-0.944-0.714c-3.956-2.763-8.365-4.427-13.092-5.235
		c-2.43-0.415-4.891-0.657-7.343-0.934c-3.148-0.355-6.243-0.947-9.274-1.873c-0.565-0.173-1.133-0.346-1.711-0.465
		c-0.519-0.107-0.985,0.045-1.297,0.508c-0.336,0.498-0.361,1.044-0.042,1.532c0.238,0.364,0.555,0.71,0.912,0.953
		c0.65,0.442,1.334,0.846,2.042,1.188c2.594,1.253,5.355,2.007,8.158,2.608c2.46,0.527,4.942,0.957,7.397,1.506
		c1.587,0.355,3.158,0.798,4.709,1.29C313.046,282.378,315.218,283.435,317.228,284.813z"/>
	<path fill="#00ff00" d="M179.997,345.934c-0.427,0.242-0.854,0.508-1.217,0.834c-0.487,0.439-0.562,1.234-0.248,1.774
		c0.295,0.506,0.898,0.787,1.532,0.646c0.33-0.073,0.655-0.22,0.948-0.391c3.315-1.942,6.889-3.188,10.637-3.965
		c2.817-0.583,5.664-0.883,8.541-0.71c2.129,0.128,4.221,0.473,6.16,1.444c0.219,0.11,0.447,0.219,0.684,0.275
		c0.687,0.163,1.303-0.113,1.642-0.705c0.332-0.581,0.236-1.263-0.287-1.753c-0.213-0.199-0.468-0.374-0.734-0.49
		c-0.722-0.316-1.444-0.647-2.196-0.878c-2.286-0.703-4.637-0.954-6.438-0.912c-4.269,0.011-7.859,0.625-11.386,1.65
		C184.972,343.528,182.414,344.567,179.997,345.934z"/>
	<path fill="#00ff00" d="M296.345,342.893c-0.266,0.116-0.521,0.291-0.734,0.49c-0.523,0.489-0.619,1.172-0.287,1.753
		c0.339,0.592,0.954,0.868,1.642,0.705c0.237-0.056,0.465-0.165,0.684-0.275c1.939-0.971,4.03-1.316,6.16-1.444
		c2.877-0.173,5.723,0.126,8.541,0.71c3.748,0.776,7.321,2.023,10.637,3.965c0.293,0.172,0.619,0.318,0.948,0.391
		c0.634,0.141,1.238-0.14,1.532-0.646c0.315-0.54,0.239-1.335-0.248-1.774c-0.362-0.326-0.789-0.592-1.217-0.834
		c-2.417-1.367-4.975-2.406-7.639-3.18c-3.526-1.025-7.117-1.639-11.386-1.65c-1.801-0.042-4.152,0.209-6.438,0.912
		C297.789,342.246,297.067,342.577,296.345,342.893z"/>
	<path fill="#00ff00" d="M217.449,100.791c3.682,7.705,6.353,15.736,7.759,24.172c0.057,0.34,0.103,0.686,0.208,1.012
		c0.177,0.546,0.704,0.686,1.187,0.354c0.673-0.463,0.928-1.167,0.97-1.916c0.09-1.625,0.183-3.256,0.135-4.881
		c-0.061-2.076-0.419-4.123-0.891-6.148c-0.103-0.444-0.158-0.899-0.236-1.349c0.454,0.33,0.759,0.71,1.013,1.122
		c1.611,2.603,3.207,5.216,4.82,7.818c0.284,0.459,0.589,0.916,0.947,1.316c0.331,0.37,0.81,0.408,1.209,0.099
		c0.385-0.298,0.765-0.64,1.036-1.039c0.692-1.021,1.408-2.04,1.956-3.139c1.1-2.207,2.093-4.468,3.134-6.705
		c0.133-0.286,0.162-0.648,0.568-0.846c0.2,0.322,0.42,0.591,0.547,0.898c0.432,1.048,0.832,2.111,1.244,3.167
		c0.125,0.321,0.223,0.657,0.384,0.959c0.203,0.381,0.665,0.497,1.021,0.252c0.28-0.193,0.561-0.419,0.759-0.69
		c0.436-0.597,0.855-1.211,1.217-1.854c1.408-2.501,2.563-5.118,3.518-7.825c0.589-1.669,1.201-3.331,1.804-4.999
		c0.139,0.06,0.264,0.074,0.309,0.141c0.162,0.244,0.313,0.5,0.441,0.763c1.233,2.539,2.143,5.203,2.988,7.887
		c1.423,4.519,2.795,9.054,4.192,13.582c0.131,0.424,0.272,0.847,0.441,1.256c0.342,0.831,0.986,1.183,1.874,1.16
		c0.844-0.022,1.547-0.355,2.078-0.98c0.445-0.524,0.849-1.094,1.198-1.686c0.927-1.574,1.806-3.177,2.721-4.758
		c1.787-3.086,3.858-5.972,6.178-8.679c0.207-0.241,0.344-0.612,0.868-0.583c0.008,0.479,0.023,0.954,0.022,1.43
		c-0.004,1.828-0.059,3.657-0.007,5.482c0.039,1.379,0.181,2.759,0.341,4.131c0.062,0.527,0.233,1.068,0.476,1.541
		c0.374,0.729,1.174,0.98,2.053,0.757c0.692-0.175,0.944-0.5,1.023-1.421c0.36-4.186,0.943-8.343,1.772-12.459
		c1.092-5.421,2.277-10.822,4.244-16.014c0.063-0.165,0.076-0.349,0.126-0.596c-0.63,0.072-0.983,0.438-1.372,0.709
		c-2.073,1.446-3.945,3.131-5.75,4.892c-5.662,5.523-10.277,11.854-14.356,18.6c-0.176,0.291-0.358,0.578-0.548,0.885
		c-0.521-0.416-0.503-1.009-0.667-1.507c-1.038-3.139-1.969-6.316-3.079-9.429c-1.581-4.432-3.684-8.627-6.221-12.59
		c-0.823-1.285-1.776-2.494-2.738-3.682c-0.556-0.686-1.241-1.269-1.889-1.876c-0.153-0.143-0.39-0.195-0.604-0.297
		c-0.056,0.195-0.099,0.288-0.108,0.383c-0.285,3.098-0.548,6.197-0.854,9.293c-0.228,2.312-0.652,4.594-1.206,6.85
		c-0.055,0.223-0.076,0.497-0.477,0.421c-0.332-1.219-0.66-2.456-1.005-3.688c-0.671-2.389-1.625-4.659-2.913-6.783
		c-0.747-1.231-1.609-2.371-2.704-3.317c-0.211-0.182-0.399-0.451-0.745-0.37c-0.038,0.034-0.098,0.061-0.101,0.093
		c-0.024,0.293-0.057,0.588-0.051,0.881c0.075,3.464-0.103,6.915-0.588,10.345c-0.45,3.182-1.136,6.315-2.085,9.387
		c-0.064,0.208-0.22,0.388-0.391,0.678c-0.348-0.51-0.627-0.912-0.898-1.318c-2.167-3.247-4.404-6.441-6.827-9.505
		c-2.536-3.208-5.541-5.895-8.941-8.153c-2.07-1.374-4.3-2.417-6.661-3.179c-0.245-0.079-0.526-0.046-0.934-0.076
		c0.185,0.304,0.27,0.477,0.384,0.628C213.375,93.23,215.591,96.903,217.449,100.791z"/>
</g>
</svg>
